{
  "asset": {
    "generator": "OpenSceneGraph 3.5.6",
    "version": "2.0"
  },
  "accessors": [
    {
      "type": "VEC3",
      "componentType": 5126,
      "count": 2458,
      "max": [
        0.15264777839183807,
        0.03548189625144005,
        -0.13708274066448212
      ],
      "min": [
        -0.06839709728956223,
        0.0075557599775493145,
        -0.20153599977493286
      ],
      "bufferView": 0,
      "byteOffset": 0
    },
    {
      "type": "VEC3",
      "componentType": 5126,
      "count": 2458,
      "bufferView": 0,
      "byteOffset": 12
    },
    {
      "type": "VEC4",
      "componentType": 5126,
      "count": 2458,
      "bufferView": 0,
      "byteOffset": 24
    },
    {
      "type": "VEC2",
      "componentType": 5126,
      "count": 2458,
      "bufferView": 0,
      "byteOffset": 40
    },
    {
      "type": "SCALAR",
      "componentType": 5123,
      "count": 8022,
      "bufferView": 1,
      "byteOffset": 0
    },
    {
      "type": "SCALAR",
      "componentType": 5123,
      "count": 97410,
      "bufferView": 1,
      "byteOffset": 16044
    },
    {
      "type": "SCALAR",
      "componentType": 5123,
      "count": 558,
      "bufferView": 1,
      "byteOffset": 210864
    },
    {
      "type": "VEC3",
      "componentType": 5126,
      "count": 17436,
      "max": [
        0.20787696540355682,
        0.0472467839717865,
        -0.09536867588758469
      ],
      "min": [
        -0.06837009638547897,
        -0.008434009738266468,
        -0.1993280053138733
      ],
      "bufferView": 2,
      "byteOffset": 0
    },
    {
      "type": "VEC3",
      "componentType": 5126,
      "count": 17436,
      "bufferView": 2,
      "byteOffset": 12
    },
    {
      "type": "VEC4",
      "componentType": 5126,
      "count": 17436,
      "bufferView": 2,
      "byteOffset": 24
    },
    {
      "type": "VEC2",
      "componentType": 5126,
      "count": 17436,
      "bufferView": 2,
      "byteOffset": 40
    },
    {
      "type": "VEC3",
      "componentType": 5126,
      "count": 372,
      "max": [
        0.15264777839183807,
        0.03136790543794632,
        -0.13708308339118958
      ],
      "min": [
        -0.06839709728956223,
        0.008802910335361958,
        -0.17209592461585999
      ],
      "bufferView": 3,
      "byteOffset": 0
    },
    {
      "type": "VEC3",
      "componentType": 5126,
      "count": 372,
      "bufferView": 3,
      "byteOffset": 12
    },
    {
      "type": "VEC4",
      "componentType": 5126,
      "count": 372,
      "bufferView": 3,
      "byteOffset": 24
    },
    {
      "type": "VEC2",
      "componentType": 5126,
      "count": 372,
      "bufferView": 3,
      "byteOffset": 40
    }
  ],
  "bufferViews": [
    {
      "buffer": 0,
      "byteOffset": 0,
      "byteLength": 117984,
      "byteStride": 48,
      "target": 34962
    },
    {
      "buffer": 0,
      "byteOffset": 117984,
      "byteLength": 211980,
      "target": 34963
    },
    {
      "buffer": 0,
      "byteOffset": 329964,
      "byteLength": 836928,
      "byteStride": 48,
      "target": 34962
    },
    {
      "buffer": 0,
      "byteOffset": 1166892,
      "byteLength": 17856,
      "byteStride": 48,
      "target": 34962
    }
  ],
  "samplers": [
    {
      "magFilter": 9729,
      "minFilter": 9987,
      "wrapS": 10497,
      "wrapT": 10497
    }
  ],
  "textures": [
    {
      "source": 0,
      "sampler": 0
    },
    {
      "source": 1,
      "sampler": 0
    }
  ],
  "images": [
    {
      "name": "ken_Default.001_color.jpg",
      "mimeType": "image/jpeg",
      "uri": "images/ken_Default.001_color.jpg"
    },
    {
      "name": "ken_Default.001_nmap.jpg",
      "mimeType": "image/jpeg",
      "uri": "images/ken_Default.001_nmap.jpg"
    }
  ],
  "buffers": [
    {
      "uri": "Kèn.bin",
      "byteLength": 1184748
    }
  ],
  "materials": [
    {
      "name": "Default.001",
      "doubleSided": true,
      "pbrMetallicRoughness": {
        "metallicFactor": 0,
        "baseColorTexture": {
          "index": 0
        },
        "metallicRoughnessTexture": {
          "index": 0
        }
      },
      "normalTexture": {
        "index": 1
      },
      "occlusionTexture": {
        "index": 0
      },
      "extensions": {
        "KHR_materials_specular": {
          "specularTexture": {
            "index": 0
          }
        }
      }
    }
  ],
  "meshes": [
    {
      "name": "GeometryNode_3",
      "primitives": [
        {
          "attributes": {
            "POSITION": 0,
            "NORMAL": 1,
            "TANGENT": 2,
            "TEXCOORD_0": 3
          },
          "mode": 4,
          "material": 0,
          "indices": 4
        }
      ]
    },
    {
      "name": "GeometryNode_16",
      "primitives": [
        {
          "attributes": {
            "POSITION": 7,
            "NORMAL": 8,
            "TANGENT": 9,
            "TEXCOORD_0": 10
          },
          "mode": 4,
          "material": 0,
          "indices": 5
        }
      ]
    },
    {
      "name": "GeometryNode_24",
      "primitives": [
        {
          "attributes": {
            "POSITION": 11,
            "NORMAL": 12,
            "TANGENT": 13,
            "TEXCOORD_0": 14
          },
          "mode": 4,
          "material": 0,
          "indices": 6
        }
      ]
    }
  ],
  "nodes": [
    {
      "name": "ken.obj.cleaner.materialmerger.gles",
      "children": [
        1
      ]
    },
    {
      "name": "ken_Mesh.003",
      "children": [
        2,
        3,
        4
      ]
    },
    {
      "name": "GeometryNode_3",
      "mesh": 0
    },
    {
      "name": "GeometryNode_16",
      "mesh": 1
    },
    {
      "name": "GeometryNode_24",
      "mesh": 2
    },
    {
      "name": "Sketchfab_model",
      "translation": [
        -0.1448552906513214,
        0.13417895138263702,
        -0.2070700079202652
      ],
      "rotation": [
        -0.3470410568552039,
        -0.17695606881591774,
        -0.2131437189533436,
        0.8960015684868533
      ],
      "children": [
        0
      ]
    }
  ],
  "scenes": [
    {
      "name": "Scene",
      "nodes": [
        5
      ]
    }
  ],
  "extensionsUsed": [
    "KHR_materials_specular"
  ]
}