{
  "asset": {
    "generator": "OpenSceneGraph 3.5.6",
    "version": "2.0"
  },
  "accessors": [
    {
      "type": "VEC3",
      "componentType": 5126,
      "count": 65531,
      "max": [
        79.37818908691406,
        77.90157318115234,
        209.77825927734375
      ],
      "min": [
        -49.587459564208984,
        -45.227901458740234,
        -187.572998046875
      ],
      "bufferView": 0,
      "byteOffset": 0
    },
    {
      "type": "VEC3",
      "componentType": 5126,
      "count": 65531,
      "bufferView": 0,
      "byteOffset": 12
    },
    {
      "type": "VEC2",
      "componentType": 5126,
      "count": 65531,
      "bufferView": 0,
      "byteOffset": 24
    },
    {
      "type": "SCALAR",
      "componentType": 5123,
      "count": 356118,
      "bufferView": 1,
      "byteOffset": 0
    },
    {
      "type": "SCALAR",
      "componentType": 5123,
      "count": 258627,
      "bufferView": 1,
      "byteOffset": 712236
    },
    {
      "type": "VEC3",
      "componentType": 5126,
      "count": 50388,
      "max": [
        83.30667877197266,
        99.09632110595703,
        209.88743591308594
      ],
      "min": [
        -49.8109016418457,
        -18.553884506225586,
        -187.25762939453125
      ],
      "bufferView": 2,
      "byteOffset": 0
    },
    {
      "type": "VEC3",
      "componentType": 5126,
      "count": 50388,
      "bufferView": 2,
      "byteOffset": 12
    },
    {
      "type": "VEC2",
      "componentType": 5126,
      "count": 50388,
      "bufferView": 2,
      "byteOffset": 24
    }
  ],
  "bufferViews": [
    {
      "buffer": 0,
      "byteOffset": 0,
      "byteLength": 2096992,
      "byteStride": 32,
      "target": 34962
    },
    {
      "buffer": 0,
      "byteOffset": 2096992,
      "byteLength": 1229492,
      "target": 34963
    },
    {
      "buffer": 0,
      "byteOffset": 3326484,
      "byteLength": 1612416,
      "byteStride": 32,
      "target": 34962
    }
  ],
  "samplers": [
    {
      "magFilter": 9729,
      "minFilter": 9987,
      "wrapS": 10497,
      "wrapT": 10497
    }
  ],
  "textures": [
    {
      "source": 0,
      "sampler": 0
    }
  ],
  "images": [
    {
      "name": "bake mnong_Default_color.jpg",
      "mimeType": "image/jpeg",
      "uri": "images/bake_mnong_Default_color.jpg"
    }
  ],
  "buffers": [
    {
      "uri": "Y_phục_nữ_dân_tộc_Mnông.bin",
      "byteLength": 4938900
    }
  ],
  "materials": [
    {
      "name": "Default.001",
      "doubleSided": true,
      "pbrMetallicRoughness": {
        "metallicFactor": 0,
        "baseColorTexture": {
          "index": 0
        },
        "metallicRoughnessTexture": {
          "index": 0
        }
      },
      "occlusionTexture": {
        "index": 0
      },
      "extensions": {
        "KHR_materials_specular": {
          "specularFactor": 0.6430495788177639,
          "specularColorFactor": [
            0.2,
            0.2,
            0.2
          ]
        }
      }
    }
  ],
  "meshes": [
    {
      "name": "GeometryNode_3",
      "primitives": [
        {
          "attributes": {
            "POSITION": 0,
            "NORMAL": 1,
            "TEXCOORD_0": 2
          },
          "mode": 4,
          "material": 0,
          "indices": 3
        }
      ]
    },
    {
      "name": "GeometryNode_15",
      "primitives": [
        {
          "attributes": {
            "POSITION": 5,
            "NORMAL": 6,
            "TEXCOORD_0": 7
          },
          "mode": 4,
          "material": 0,
          "indices": 4
        }
      ]
    }
  ],
  "nodes": [
    {
      "name": "bake mnong.obj.cleaner.materialmerger.gles",
      "children": [
        1
      ]
    },
    {
      "name": "bake_mnong",
      "children": [
        2,
        3
      ]
    },
    {
      "name": "GeometryNode_3",
      "mesh": 0
    },
    {
      "name": "GeometryNode_15",
      "mesh": 1
    },
    {
      "name": "Sketchfab_model",
      "translation": [
        -0.7263997793197632,
        -34.16811752319336,
        -555.1653442382812
      ],
      "rotation": [
        0.24708921763167702,
        0.563482606485354,
        0.7219505753160912,
        -0.3165780131949495
      ],
      "children": [
        0
      ]
    }
  ],
  "scenes": [
    {
      "name": "Scene",
      "nodes": [
        4
      ]
    }
  ],
  "extensionsUsed": [
    "KHR_materials_specular"
  ]
}