{
  "asset": {
    "generator": "OpenSceneGraph 3.5.6",
    "version": "2.0"
  },
  "accessors": [
    {
      "type": "VEC3",
      "componentType": 5126,
      "count": 54,
      "max": [
        0.011498979292809963,
        0.10289929807186127,
        0.4696009159088135
      ],
      "min": [
        -0.2361000031232834,
        -0.13940000534057617,
        -0.8392999768257141
      ],
      "bufferView": 0,
      "byteOffset": 0
    },
    {
      "type": "VEC3",
      "componentType": 5126,
      "count": 54,
      "bufferView": 0,
      "byteOffset": 12
    },
    {
      "type": "VEC2",
      "componentType": 5126,
      "count": 54,
      "bufferView": 0,
      "byteOffset": 24
    },
    {
      "type": "SCALAR",
      "componentType": 5123,
      "count": 84,
      "bufferView": 1,
      "byteOffset": 0
    },
    {
      "type": "SCALAR",
      "componentType": 5123,
      "count": 65676,
      "bufferView": 1,
      "byteOffset": 168
    },
    {
      "type": "SCALAR",
      "componentType": 5123,
      "count": 65607,
      "bufferView": 1,
      "byteOffset": 131520
    },
    {
      "type": "SCALAR",
      "componentType": 5123,
      "count": 65583,
      "bufferView": 1,
      "byteOffset": 262736
    },
    {
      "type": "SCALAR",
      "componentType": 5123,
      "count": 20688,
      "bufferView": 1,
      "byteOffset": 393904
    },
    {
      "type": "VEC3",
      "componentType": 5126,
      "count": 65533,
      "max": [
        0.15240128338336945,
        0.05920320749282837,
        0.3077964186668396
      ],
      "min": [
        -0.3234005570411682,
        -0.120602548122406,
        -0.8721965551376343
      ],
      "bufferView": 2,
      "byteOffset": 0
    },
    {
      "type": "VEC3",
      "componentType": 5126,
      "count": 65533,
      "bufferView": 2,
      "byteOffset": 12
    },
    {
      "type": "VEC2",
      "componentType": 5126,
      "count": 65533,
      "bufferView": 2,
      "byteOffset": 24
    },
    {
      "type": "VEC3",
      "componentType": 5126,
      "count": 65531,
      "max": [
        0.15559905767440796,
        0.0721999779343605,
        0.07219316810369492
      ],
      "min": [
        -0.3084035813808441,
        -0.1379999965429306,
        -0.8940897583961487
      ],
      "bufferView": 3,
      "byteOffset": 0
    },
    {
      "type": "VEC3",
      "componentType": 5126,
      "count": 65531,
      "bufferView": 3,
      "byteOffset": 12
    },
    {
      "type": "VEC2",
      "componentType": 5126,
      "count": 65531,
      "bufferView": 3,
      "byteOffset": 24
    },
    {
      "type": "VEC3",
      "componentType": 5126,
      "count": 65533,
      "max": [
        0.09079975634813309,
        0.06629818677902222,
        0.32760095596313477
      ],
      "min": [
        -0.3294999897480011,
        -0.1221998780965805,
        -0.6923145651817322
      ],
      "bufferView": 4,
      "byteOffset": 0
    },
    {
      "type": "VEC3",
      "componentType": 5126,
      "count": 65533,
      "bufferView": 4,
      "byteOffset": 12
    },
    {
      "type": "VEC2",
      "componentType": 5126,
      "count": 65533,
      "bufferView": 4,
      "byteOffset": 24
    },
    {
      "type": "VEC3",
      "componentType": 5126,
      "count": 20659,
      "max": [
        0.12989844381809235,
        0.03889976441860199,
        0.12481880933046341
      ],
      "min": [
        -0.3071008026599884,
        -0.1379999965429306,
        -0.8945000171661377
      ],
      "bufferView": 5,
      "byteOffset": 0
    },
    {
      "type": "VEC3",
      "componentType": 5126,
      "count": 20659,
      "bufferView": 5,
      "byteOffset": 12
    },
    {
      "type": "VEC2",
      "componentType": 5126,
      "count": 20659,
      "bufferView": 5,
      "byteOffset": 24
    }
  ],
  "bufferViews": [
    {
      "buffer": 0,
      "byteOffset": 0,
      "byteLength": 1728,
      "byteStride": 32,
      "target": 34962
    },
    {
      "buffer": 0,
      "byteOffset": 1728,
      "byteLength": 435280,
      "target": 34963
    },
    {
      "buffer": 0,
      "byteOffset": 437008,
      "byteLength": 2097056,
      "byteStride": 32,
      "target": 34962
    },
    {
      "buffer": 0,
      "byteOffset": 2534064,
      "byteLength": 2096992,
      "byteStride": 32,
      "target": 34962
    },
    {
      "buffer": 0,
      "byteOffset": 4631056,
      "byteLength": 2097056,
      "byteStride": 32,
      "target": 34962
    },
    {
      "buffer": 0,
      "byteOffset": 6728112,
      "byteLength": 661088,
      "byteStride": 32,
      "target": 34962
    }
  ],
  "samplers": [
    {
      "magFilter": 9729,
      "minFilter": 9987,
      "wrapS": 10497,
      "wrapT": 10497
    }
  ],
  "textures": [
    {
      "source": 0,
      "sampler": 0
    }
  ],
  "images": [
    {
      "name": "5_0.jpeg",
      "mimeType": "image/jpeg",
      "uri": "images/5_0.jpg"
    }
  ],
  "buffers": [
    {
      "uri": "5_Y_phục_nữ_dân_tộc_Gia_Rai.bin",
      "byteLength": 7389200
    }
  ],
  "materials": [
    {
      "name": "wire_138008110.004",
      "alphaMode": "BLEND",
      "doubleSided": true,
      "pbrMetallicRoughness": {
        "baseColorFactor": [
          0.00668637,
          0.00149981,
          0.00582167,
          1
        ],
        "metallicRoughnessTexture": {
          "index": 0
        }
      },
      "occlusionTexture": {
        "index": 0
      },
      "extensions": {
        "KHR_materials_ior": {
          "ior": 1
        },
        "KHR_materials_pbrSpecularGlossiness": {
          "diffuseFactor": [
            0.00668637,
            0.00149981,
            0.00582167,
            0
          ],
          "specularFactor": [
            0,
            0,
            0
          ],
          "glossinessFactor": 1
        },
        "KHR_materials_transmission": {
          "transmissionFactor": 1
        }
      }
    },
    {
      "name": "5",
      "doubleSided": true,
      "pbrMetallicRoughness": {
        "baseColorTexture": {
          "index": 0
        }
      },
      "extensions": {
        "KHR_materials_pbrSpecularGlossiness": {
          "diffuseFactor": [
            1,
            1,
            1,
            1
          ],
          "specularFactor": [
            0,
            0,
            0
          ],
          "glossinessFactor": 1,
          "diffuseTexture": {
            "index": 0
          }
        }
      }
    }
  ],
  "meshes": [
    {
      "name": "GeometryNode_5",
      "primitives": [
        {
          "attributes": {
            "POSITION": 0,
            "NORMAL": 1,
            "TEXCOORD_0": 2
          },
          "mode": 4,
          "material": 0,
          "indices": 3
        }
      ]
    },
    {
      "name": "GeometryNode_22",
      "primitives": [
        {
          "attributes": {
            "POSITION": 8,
            "NORMAL": 9,
            "TEXCOORD_0": 10
          },
          "mode": 4,
          "material": 1,
          "indices": 4
        }
      ]
    },
    {
      "name": "GeometryNode_34",
      "primitives": [
        {
          "attributes": {
            "POSITION": 11,
            "NORMAL": 12,
            "TEXCOORD_0": 13
          },
          "mode": 4,
          "material": 1,
          "indices": 5
        }
      ]
    },
    {
      "name": "GeometryNode_42",
      "primitives": [
        {
          "attributes": {
            "POSITION": 14,
            "NORMAL": 15,
            "TEXCOORD_0": 16
          },
          "mode": 4,
          "material": 1,
          "indices": 6
        }
      ]
    },
    {
      "name": "GeometryNode_50",
      "primitives": [
        {
          "attributes": {
            "POSITION": 17,
            "NORMAL": 18,
            "TEXCOORD_0": 19
          },
          "mode": 4,
          "material": 1,
          "indices": 7
        }
      ]
    }
  ],
  "nodes": [
    {
      "name": "root",
      "children": [
        1
      ]
    },
    {
      "name": "GLTF_SceneRootNode",
      "rotation": [
        0.7071067811865475,
        0,
        0,
        0.7071067811865476
      ],
      "children": [
        2,
        5
      ]
    },
    {
      "name": "Box001_0",
      "rotation": [
        0.7071067811865475,
        0,
        0,
        0.7071067811865476
      ],
      "children": [
        3
      ]
    },
    {
      "name": "Box001",
      "children": [
        4
      ]
    },
    {
      "name": "GeometryNode_5",
      "mesh": 0
    },
    {
      "name": "default_1",
      "rotation": [
        0.7071067811865475,
        0,
        0,
        0.7071067811865476
      ],
      "children": [
        6
      ]
    },
    {
      "name": "default",
      "children": [
        7,
        8,
        9,
        10
      ]
    },
    {
      "name": "GeometryNode_22",
      "mesh": 1
    },
    {
      "name": "GeometryNode_34",
      "mesh": 2
    },
    {
      "name": "GeometryNode_42",
      "mesh": 3
    },
    {
      "name": "GeometryNode_50",
      "mesh": 4
    },
    {
      "name": "Sketchfab_model",
      "translation": [
        0.08816304057836533,
        -0.211417555809021,
        -1.941560983657837
      ],
      "rotation": [
        -0.6466531089524667,
        0.026817984037929492,
        0.03158746098129511,
        0.7616579184396265
      ],
      "children": [
        0
      ]
    }
  ],
  "scenes": [
    {
      "name": "Scene",
      "nodes": [
        11
      ]
    }
  ],
  "extensionsUsed": [
    "KHR_materials_ior",
    "KHR_materials_pbrSpecularGlossiness",
    "KHR_materials_transmission"
  ]
}