{
  "asset": {
    "generator": "OpenSceneGraph 3.5.6",
    "version": "2.0"
  },
  "accessors": [
    {
      "type": "VEC3",
      "componentType": 5126,
      "count": 65531,
      "max": [
        3.2446982860565186,
        1.775010585784912,
        18.369915008544922
      ],
      "min": [
        -5.769700050354004,
        -8.822699546813965,
        -11.800299644470215
      ],
      "bufferView": 0,
      "byteOffset": 0
    },
    {
      "type": "VEC3",
      "componentType": 5126,
      "count": 65531,
      "bufferView": 0,
      "byteOffset": 12
    },
    {
      "type": "VEC2",
      "componentType": 5126,
      "count": 65531,
      "bufferView": 0,
      "byteOffset": 24
    },
    {
      "type": "SCALAR",
      "componentType": 5123,
      "count": 346560,
      "bufferView": 1,
      "byteOffset": 0
    },
    {
      "type": "SCALAR",
      "componentType": 5123,
      "count": 186216,
      "bufferView": 1,
      "byteOffset": 693120
    },
    {
      "type": "SCALAR",
      "componentType": 5123,
      "count": 264,
      "bufferView": 1,
      "byteOffset": 1065552
    },
    {
      "type": "VEC3",
      "componentType": 5126,
      "count": 39469,
      "max": [
        3.1093461513519287,
        1.8094050884246826,
        18.3505802154541
      ],
      "min": [
        -5.766674041748047,
        -3.540879726409912,
        -11.799379348754883
      ],
      "bufferView": 2,
      "byteOffset": 0
    },
    {
      "type": "VEC3",
      "componentType": 5126,
      "count": 39469,
      "bufferView": 2,
      "byteOffset": 12
    },
    {
      "type": "VEC2",
      "componentType": 5126,
      "count": 39469,
      "bufferView": 2,
      "byteOffset": 24
    },
    {
      "type": "VEC3",
      "componentType": 5126,
      "count": 48,
      "max": [
        0.7713980078697205,
        -0.5267993807792664,
        0.8908889889717102
      ],
      "min": [
        -2.2479000091552734,
        -0.8568000197410583,
        -17.766300201416016
      ],
      "bufferView": 3,
      "byteOffset": 0
    },
    {
      "type": "VEC3",
      "componentType": 5126,
      "count": 48,
      "bufferView": 3,
      "byteOffset": 12
    }
  ],
  "bufferViews": [
    {
      "buffer": 0,
      "byteOffset": 0,
      "byteLength": 2096992,
      "byteStride": 32,
      "target": 34962
    },
    {
      "buffer": 0,
      "byteOffset": 2096992,
      "byteLength": 1066080,
      "target": 34963
    },
    {
      "buffer": 0,
      "byteOffset": 3163072,
      "byteLength": 1263008,
      "byteStride": 32,
      "target": 34962
    },
    {
      "buffer": 0,
      "byteOffset": 4426080,
      "byteLength": 1152,
      "byteStride": 24,
      "target": 34962
    }
  ],
  "samplers": [
    {
      "magFilter": 9729,
      "minFilter": 9987,
      "wrapS": 10497,
      "wrapT": 10497
    }
  ],
  "textures": [
    {
      "source": 0,
      "sampler": 0
    }
  ],
  "images": [
    {
      "name": "bakr_Default_color.jpg",
      "mimeType": "image/jpeg",
      "uri": "images/bakr_Default_color.jpg"
    }
  ],
  "buffers": [
    {
      "uri": "Y_phục_nữ_dân_tộc_Gia_Rai.bin",
      "byteLength": 4427232
    }
  ],
  "materials": [
    {
      "name": "Default",
      "doubleSided": true,
      "pbrMetallicRoughness": {
        "metallicFactor": 0,
        "baseColorTexture": {
          "index": 0
        },
        "metallicRoughnessTexture": {
          "index": 0
        }
      },
      "occlusionTexture": {
        "index": 0
      },
      "extensions": {
        "KHR_materials_specular": {}
      }
    },
    {
      "name": "wire_057008136",
      "doubleSided": true,
      "pbrMetallicRoughness": {
        "baseColorFactor": [
          0,
          0,
          0,
          1
        ]
      },
      "extensions": {
        "KHR_materials_specular": {
          "specularColorFactor": [
            0.35,
            0.35,
            0.35
          ]
        }
      }
    }
  ],
  "meshes": [
    {
      "name": "GeometryNode_3",
      "primitives": [
        {
          "attributes": {
            "POSITION": 0,
            "NORMAL": 1,
            "TEXCOORD_0": 2
          },
          "mode": 4,
          "material": 0,
          "indices": 3
        }
      ]
    },
    {
      "name": "GeometryNode_15",
      "primitives": [
        {
          "attributes": {
            "POSITION": 6,
            "NORMAL": 7,
            "TEXCOORD_0": 8
          },
          "mode": 4,
          "material": 0,
          "indices": 4
        }
      ]
    },
    {
      "name": "GeometryNode_23",
      "primitives": [
        {
          "attributes": {
            "POSITION": 9,
            "NORMAL": 10
          },
          "mode": 4,
          "material": 1,
          "indices": 5
        }
      ]
    }
  ],
  "nodes": [
    {
      "name": "bakr.obj.cleaner.materialmerger.gles",
      "children": [
        1
      ]
    },
    {
      "name": "bakr:bakr",
      "children": [
        2,
        3,
        4
      ]
    },
    {
      "name": "GeometryNode_3",
      "mesh": 0
    },
    {
      "name": "GeometryNode_15",
      "mesh": 1
    },
    {
      "name": "GeometryNode_23",
      "mesh": 2
    },
    {
      "name": "Sketchfab_model",
      "translation": [
        1.043113112449646,
        -2.0936336517333984,
        -54.02819061279297
      ],
      "rotation": [
        -0.6499352029323179,
        0.019397883558199866,
        0.02266507151644841,
        0.7594038771658427
      ],
      "children": [
        0
      ]
    }
  ],
  "scenes": [
    {
      "name": "Scene",
      "nodes": [
        5
      ]
    }
  ],
  "extensionsUsed": [
    "KHR_materials_specular"
  ]
}