{
  "asset": {
    "generator": "OpenSceneGraph 3.5.6",
    "version": "2.0"
  },
  "accessors": [
    {
      "type": "VEC3",
      "componentType": 5126,
      "count": 65533,
      "max": [
        0.8362117409706116,
        0.6789249181747437,
        0.5392462611198425
      ],
      "min": [
        -0.7868340015411377,
        -0.7667859792709351,
        -0.43195900321006775
      ],
      "bufferView": 0,
      "byteOffset": 0
    },
    {
      "type": "VEC3",
      "componentType": 5126,
      "count": 65533,
      "bufferView": 0,
      "byteOffset": 12
    },
    {
      "type": "VEC2",
      "componentType": 5126,
      "count": 65533,
      "bufferView": 0,
      "byteOffset": 24
    },
    {
      "type": "SCALAR",
      "componentType": 5123,
      "count": 65661,
      "bufferView": 1,
      "byteOffset": 0
    },
    {
      "type": "SCALAR",
      "componentType": 5123,
      "count": 62055,
      "bufferView": 1,
      "byteOffset": 131324
    },
    {
      "type": "SCALAR",
      "componentType": 5123,
      "count": 65553,
      "bufferView": 1,
      "byteOffset": 255436
    },
    {
      "type": "SCALAR",
      "componentType": 5123,
      "count": 65649,
      "bufferView": 1,
      "byteOffset": 386544
    },
    {
      "type": "SCALAR",
      "componentType": 5123,
      "count": 65538,
      "bufferView": 1,
      "byteOffset": 517844
    },
    {
      "type": "SCALAR",
      "componentType": 5123,
      "count": 65589,
      "bufferView": 1,
      "byteOffset": 648920
    },
    {
      "type": "SCALAR",
      "componentType": 5123,
      "count": 65583,
      "bufferView": 1,
      "byteOffset": 780100
    },
    {
      "type": "SCALAR",
      "componentType": 5123,
      "count": 65547,
      "bufferView": 1,
      "byteOffset": 911268
    },
    {
      "type": "SCALAR",
      "componentType": 5123,
      "count": 65577,
      "bufferView": 1,
      "byteOffset": 1042364
    },
    {
      "type": "SCALAR",
      "componentType": 5123,
      "count": 5508,
      "bufferView": 1,
      "byteOffset": 1173520
    },
    {
      "type": "SCALAR",
      "componentType": 5123,
      "count": 98295,
      "bufferView": 1,
      "byteOffset": 1184536
    },
    {
      "type": "SCALAR",
      "componentType": 5123,
      "count": 98085,
      "bufferView": 1,
      "byteOffset": 1381128
    },
    {
      "type": "SCALAR",
      "componentType": 5123,
      "count": 21729,
      "bufferView": 1,
      "byteOffset": 1577300
    },
    {
      "type": "SCALAR",
      "componentType": 5123,
      "count": 33132,
      "bufferView": 1,
      "byteOffset": 1620760
    },
    {
      "type": "SCALAR",
      "componentType": 5123,
      "count": 2496,
      "bufferView": 1,
      "byteOffset": 1687024
    },
    {
      "type": "SCALAR",
      "componentType": 5123,
      "count": 102357,
      "bufferView": 1,
      "byteOffset": 1692016
    },
    {
      "type": "SCALAR",
      "componentType": 5123,
      "count": 101976,
      "bufferView": 1,
      "byteOffset": 1896732
    },
    {
      "type": "SCALAR",
      "componentType": 5123,
      "count": 100530,
      "bufferView": 1,
      "byteOffset": 2100684
    },
    {
      "type": "SCALAR",
      "componentType": 5123,
      "count": 100710,
      "bufferView": 1,
      "byteOffset": 2301744
    },
    {
      "type": "SCALAR",
      "componentType": 5123,
      "count": 100806,
      "bufferView": 1,
      "byteOffset": 2503164
    },
    {
      "type": "SCALAR",
      "componentType": 5123,
      "count": 100872,
      "bufferView": 1,
      "byteOffset": 2704776
    },
    {
      "type": "SCALAR",
      "componentType": 5123,
      "count": 100758,
      "bufferView": 1,
      "byteOffset": 2906520
    },
    {
      "type": "SCALAR",
      "componentType": 5123,
      "count": 100905,
      "bufferView": 1,
      "byteOffset": 3108036
    },
    {
      "type": "SCALAR",
      "componentType": 5123,
      "count": 100848,
      "bufferView": 1,
      "byteOffset": 3309848
    },
    {
      "type": "SCALAR",
      "componentType": 5123,
      "count": 101403,
      "bufferView": 1,
      "byteOffset": 3511544
    },
    {
      "type": "SCALAR",
      "componentType": 5123,
      "count": 49059,
      "bufferView": 1,
      "byteOffset": 3714352
    },
    {
      "type": "SCALAR",
      "componentType": 5123,
      "count": 79872,
      "bufferView": 1,
      "byteOffset": 3812472
    },
    {
      "type": "SCALAR",
      "componentType": 5123,
      "count": 101832,
      "bufferView": 1,
      "byteOffset": 3972216
    },
    {
      "type": "SCALAR",
      "componentType": 5123,
      "count": 102267,
      "bufferView": 1,
      "byteOffset": 4175880
    },
    {
      "type": "SCALAR",
      "componentType": 5123,
      "count": 100998,
      "bufferView": 1,
      "byteOffset": 4380416
    },
    {
      "type": "SCALAR",
      "componentType": 5123,
      "count": 100854,
      "bufferView": 1,
      "byteOffset": 4582412
    },
    {
      "type": "SCALAR",
      "componentType": 5123,
      "count": 100578,
      "bufferView": 1,
      "byteOffset": 4784120
    },
    {
      "type": "SCALAR",
      "componentType": 5123,
      "count": 100854,
      "bufferView": 1,
      "byteOffset": 4985276
    },
    {
      "type": "SCALAR",
      "componentType": 5123,
      "count": 100473,
      "bufferView": 1,
      "byteOffset": 5186984
    },
    {
      "type": "SCALAR",
      "componentType": 5123,
      "count": 100719,
      "bufferView": 1,
      "byteOffset": 5387932
    },
    {
      "type": "SCALAR",
      "componentType": 5123,
      "count": 101466,
      "bufferView": 1,
      "byteOffset": 5589372
    },
    {
      "type": "SCALAR",
      "componentType": 5123,
      "count": 101514,
      "bufferView": 1,
      "byteOffset": 5792304
    },
    {
      "type": "SCALAR",
      "componentType": 5123,
      "count": 48669,
      "bufferView": 1,
      "byteOffset": 5995332
    },
    {
      "type": "SCALAR",
      "componentType": 5123,
      "count": 79872,
      "bufferView": 1,
      "byteOffset": 6092672
    },
    {
      "type": "SCALAR",
      "componentType": 5123,
      "count": 33132,
      "bufferView": 1,
      "byteOffset": 6252416
    },
    {
      "type": "SCALAR",
      "componentType": 5123,
      "count": 2496,
      "bufferView": 1,
      "byteOffset": 6318680
    },
    {
      "type": "SCALAR",
      "componentType": 5123,
      "count": 33132,
      "bufferView": 1,
      "byteOffset": 6323672
    },
    {
      "type": "SCALAR",
      "componentType": 5123,
      "count": 2496,
      "bufferView": 1,
      "byteOffset": 6389936
    },
    {
      "type": "SCALAR",
      "componentType": 5123,
      "count": 33132,
      "bufferView": 1,
      "byteOffset": 6394928
    },
    {
      "type": "SCALAR",
      "componentType": 5123,
      "count": 2496,
      "bufferView": 1,
      "byteOffset": 6461192
    },
    {
      "type": "SCALAR",
      "componentType": 5123,
      "count": 33132,
      "bufferView": 1,
      "byteOffset": 6466184
    },
    {
      "type": "SCALAR",
      "componentType": 5123,
      "count": 2496,
      "bufferView": 1,
      "byteOffset": 6532448
    },
    {
      "type": "SCALAR",
      "componentType": 5123,
      "count": 33132,
      "bufferView": 1,
      "byteOffset": 6537440
    },
    {
      "type": "SCALAR",
      "componentType": 5123,
      "count": 2496,
      "bufferView": 1,
      "byteOffset": 6603704
    },
    {
      "type": "SCALAR",
      "componentType": 5123,
      "count": 33132,
      "bufferView": 1,
      "byteOffset": 6608696
    },
    {
      "type": "SCALAR",
      "componentType": 5123,
      "count": 2496,
      "bufferView": 1,
      "byteOffset": 6674960
    },
    {
      "type": "SCALAR",
      "componentType": 5123,
      "count": 33132,
      "bufferView": 1,
      "byteOffset": 6679952
    },
    {
      "type": "SCALAR",
      "componentType": 5123,
      "count": 2496,
      "bufferView": 1,
      "byteOffset": 6746216
    },
    {
      "type": "SCALAR",
      "componentType": 5123,
      "count": 33132,
      "bufferView": 1,
      "byteOffset": 6751208
    },
    {
      "type": "SCALAR",
      "componentType": 5123,
      "count": 2496,
      "bufferView": 1,
      "byteOffset": 6817472
    },
    {
      "type": "SCALAR",
      "componentType": 5123,
      "count": 11172,
      "bufferView": 1,
      "byteOffset": 6822464
    },
    {
      "type": "SCALAR",
      "componentType": 5123,
      "count": 11172,
      "bufferView": 1,
      "byteOffset": 6844808
    },
    {
      "type": "SCALAR",
      "componentType": 5123,
      "count": 83697,
      "bufferView": 1,
      "byteOffset": 6867152
    },
    {
      "type": "SCALAR",
      "componentType": 5123,
      "count": 65643,
      "bufferView": 1,
      "byteOffset": 7034548
    },
    {
      "type": "SCALAR",
      "componentType": 5123,
      "count": 23520,
      "bufferView": 1,
      "byteOffset": 7165836
    },
    {
      "type": "VEC3",
      "componentType": 5126,
      "count": 62043,
      "max": [
        0.8329550623893738,
        0.6789249181747437,
        0.544903039932251
      ],
      "min": [
        -0.7868340015411377,
        -0.76114422082901,
        -0.43195900321006775
      ],
      "bufferView": 2,
      "byteOffset": 0
    },
    {
      "type": "VEC3",
      "componentType": 5126,
      "count": 62043,
      "bufferView": 2,
      "byteOffset": 12
    },
    {
      "type": "VEC2",
      "componentType": 5126,
      "count": 62043,
      "bufferView": 2,
      "byteOffset": 24
    },
    {
      "type": "VEC3",
      "componentType": 5126,
      "count": 65533,
      "max": [
        0.5157366394996643,
        -21.324647903442383,
        -1.5994255542755127
      ],
      "min": [
        -0.6324671506881714,
        -21.759660720825195,
        -2.7531707286834717
      ],
      "bufferView": 3,
      "byteOffset": 0
    },
    {
      "type": "VEC3",
      "componentType": 5126,
      "count": 65533,
      "bufferView": 3,
      "byteOffset": 12
    },
    {
      "type": "VEC2",
      "componentType": 5126,
      "count": 65533,
      "bufferView": 3,
      "byteOffset": 24
    },
    {
      "type": "VEC3",
      "componentType": 5126,
      "count": 65531,
      "max": [
        0.6670854687690735,
        2.4068069458007812,
        -1.6018171310424805
      ],
      "min": [
        -0.629268229007721,
        -22.47949981689453,
        -5.511679649353027
      ],
      "bufferView": 4,
      "byteOffset": 0
    },
    {
      "type": "VEC3",
      "componentType": 5126,
      "count": 65531,
      "bufferView": 4,
      "byteOffset": 12
    },
    {
      "type": "VEC2",
      "componentType": 5126,
      "count": 65531,
      "bufferView": 4,
      "byteOffset": 24
    },
    {
      "type": "VEC3",
      "componentType": 5126,
      "count": 65532,
      "max": [
        0.5164085626602173,
        2.446362257003784,
        -0.8626992702484131
      ],
      "min": [
        -0.7343969941139221,
        1.7951264381408691,
        -5.512800216674805
      ],
      "bufferView": 5,
      "byteOffset": 0
    },
    {
      "type": "VEC3",
      "componentType": 5126,
      "count": 65532,
      "bufferView": 5,
      "byteOffset": 12
    },
    {
      "type": "VEC2",
      "componentType": 5126,
      "count": 65532,
      "bufferView": 5,
      "byteOffset": 24
    },
    {
      "type": "VEC3",
      "componentType": 5126,
      "count": 65533,
      "max": [
        0.41335707902908325,
        2.43994402885437,
        -0.8626992702484131
      ],
      "min": [
        -0.7343969941139221,
        1.7950788736343384,
        -4.989474296569824
      ],
      "bufferView": 6,
      "byteOffset": 0
    },
    {
      "type": "VEC3",
      "componentType": 5126,
      "count": 65533,
      "bufferView": 6,
      "byteOffset": 12
    },
    {
      "type": "VEC2",
      "componentType": 5126,
      "count": 65533,
      "bufferView": 6,
      "byteOffset": 24
    },
    {
      "type": "VEC3",
      "componentType": 5126,
      "count": 65531,
      "max": [
        0.5746962428092957,
        2.446362257003784,
        0.1352914273738861
      ],
      "min": [
        -0.6430383920669556,
        -21.17802619934082,
        -5.509815692901611
      ],
      "bufferView": 7,
      "byteOffset": 0
    },
    {
      "type": "VEC3",
      "componentType": 5126,
      "count": 65531,
      "bufferView": 7,
      "byteOffset": 12
    },
    {
      "type": "VEC2",
      "componentType": 5126,
      "count": 65531,
      "bufferView": 7,
      "byteOffset": 24
    },
    {
      "type": "VEC3",
      "componentType": 5126,
      "count": 65533,
      "max": [
        0.5027963519096375,
        -20.72542381286621,
        0.1352914273738861
      ],
      "min": [
        -0.6430383920669556,
        -21.17802619934082,
        -1.017495036125183
      ],
      "bufferView": 8,
      "byteOffset": 0
    },
    {
      "type": "VEC3",
      "componentType": 5126,
      "count": 65533,
      "bufferView": 8,
      "byteOffset": 12
    },
    {
      "type": "VEC2",
      "componentType": 5126,
      "count": 65533,
      "bufferView": 8,
      "byteOffset": 24
    },
    {
      "type": "VEC3",
      "componentType": 5126,
      "count": 65533,
      "max": [
        0.669087827205658,
        -20.750858306884766,
        0.13231810927391052
      ],
      "min": [
        -0.6407308578491211,
        -22.47949981689453,
        -4.5384345054626465
      ],
      "bufferView": 9,
      "byteOffset": 0
    },
    {
      "type": "VEC3",
      "componentType": 5126,
      "count": 65533,
      "bufferView": 9,
      "byteOffset": 12
    },
    {
      "type": "VEC2",
      "componentType": 5126,
      "count": 65533,
      "bufferView": 9,
      "byteOffset": 24
    },
    {
      "type": "VEC3",
      "componentType": 5126,
      "count": 5506,
      "max": [
        0.669087827205658,
        -22.07168197631836,
        -3.5059595108032227
      ],
      "min": [
        0.1812770962715149,
        -22.390453338623047,
        -4.531173229217529
      ],
      "bufferView": 10,
      "byteOffset": 0
    },
    {
      "type": "VEC3",
      "componentType": 5126,
      "count": 5506,
      "bufferView": 10,
      "byteOffset": 12
    },
    {
      "type": "VEC2",
      "componentType": 5126,
      "count": 5506,
      "bufferView": 10,
      "byteOffset": 24
    },
    {
      "type": "VEC3",
      "componentType": 5126,
      "count": 65531,
      "max": [
        1.4359700679779053,
        0.23124000430107117,
        1.0305832624435425
      ],
      "min": [
        -1.4637914896011353,
        -0.3386240005493164,
        -1.3642139434814453
      ],
      "bufferView": 11,
      "byteOffset": 0
    },
    {
      "type": "VEC3",
      "componentType": 5126,
      "count": 65531,
      "bufferView": 11,
      "byteOffset": 12
    },
    {
      "type": "VEC2",
      "componentType": 5126,
      "count": 65531,
      "bufferView": 11,
      "byteOffset": 24
    },
    {
      "type": "VEC3",
      "componentType": 5126,
      "count": 65533,
      "max": [
        1.418978214263916,
        0.15353523194789886,
        1.0424339771270752
      ],
      "min": [
        -1.463879942893982,
        -0.3347109258174896,
        -1.369439959526062
      ],
      "bufferView": 12,
      "byteOffset": 0
    },
    {
      "type": "VEC3",
      "componentType": 5126,
      "count": 65533,
      "bufferView": 12,
      "byteOffset": 12
    },
    {
      "type": "VEC2",
      "componentType": 5126,
      "count": 65533,
      "bufferView": 12,
      "byteOffset": 24
    },
    {
      "type": "VEC3",
      "componentType": 5126,
      "count": 14487,
      "max": [
        0.18928319215774536,
        0.11454370617866516,
        0.6488584280014038
      ],
      "min": [
        -1.463437557220459,
        -0.2550061345100403,
        -1.2362853288650513
      ],
      "bufferView": 13,
      "byteOffset": 0
    },
    {
      "type": "VEC3",
      "componentType": 5126,
      "count": 14487,
      "bufferView": 13,
      "byteOffset": 12
    },
    {
      "type": "VEC2",
      "componentType": 5126,
      "count": 14487,
      "bufferView": 13,
      "byteOffset": 24
    },
    {
      "type": "VEC3",
      "componentType": 5126,
      "count": 21239,
      "max": [
        1.0186028480529785,
        1.156061053276062,
        1.0185976028442383
      ],
      "min": [
        -1.0185999870300293,
        -1.156059980392456,
        -1.0185999870300293
      ],
      "bufferView": 14,
      "byteOffset": 0
    },
    {
      "type": "VEC3",
      "componentType": 5126,
      "count": 21239,
      "bufferView": 14,
      "byteOffset": 12
    },
    {
      "type": "VEC2",
      "componentType": 5126,
      "count": 21239,
      "bufferView": 14,
      "byteOffset": 24
    },
    {
      "type": "VEC3",
      "componentType": 5126,
      "count": 1664,
      "max": [
        0.3055417537689209,
        1.6403899192810059,
        0.0646369457244873
      ],
      "min": [
        -0.30906999111175537,
        -1.3402099609375,
        -0.0645819753408432
      ],
      "bufferView": 15,
      "byteOffset": 0
    },
    {
      "type": "VEC3",
      "componentType": 5126,
      "count": 1664,
      "bufferView": 15,
      "byteOffset": 12
    },
    {
      "type": "VEC2",
      "componentType": 5126,
      "count": 1664,
      "bufferView": 15,
      "byteOffset": 24
    },
    {
      "type": "VEC3",
      "componentType": 5126,
      "count": 65531,
      "max": [
        2.841758966445923,
        3.30310320854187,
        -0.14782172441482544
      ],
      "min": [
        -2.1497669219970703,
        -11.587800025939941,
        -5.241153240203857
      ],
      "bufferView": 16,
      "byteOffset": 0
    },
    {
      "type": "VEC3",
      "componentType": 5126,
      "count": 65531,
      "bufferView": 16,
      "byteOffset": 12
    },
    {
      "type": "VEC2",
      "componentType": 5126,
      "count": 65531,
      "bufferView": 16,
      "byteOffset": 24
    },
    {
      "type": "VEC3",
      "componentType": 5126,
      "count": 65532,
      "max": [
        6.012144565582275,
        10.289580345153809,
        -1.4499354362487793
      ],
      "min": [
        1.4691766500473022,
        -8.904121398925781,
        -6.723363876342773
      ],
      "bufferView": 17,
      "byteOffset": 0
    },
    {
      "type": "VEC3",
      "componentType": 5126,
      "count": 65532,
      "bufferView": 17,
      "byteOffset": 12
    },
    {
      "type": "VEC2",
      "componentType": 5126,
      "count": 65532,
      "bufferView": 17,
      "byteOffset": 24
    },
    {
      "type": "VEC3",
      "componentType": 5126,
      "count": 65533,
      "max": [
        19.59050178527832,
        11.433415412902832,
        -2.608685255050659
      ],
      "min": [
        4.495542049407959,
        -7.288872241973877,
        -15.659457206726074
      ],
      "bufferView": 18,
      "byteOffset": 0
    },
    {
      "type": "VEC3",
      "componentType": 5126,
      "count": 65533,
      "bufferView": 18,
      "byteOffset": 12
    },
    {
      "type": "VEC2",
      "componentType": 5126,
      "count": 65533,
      "bufferView": 18,
      "byteOffset": 24
    },
    {
      "type": "VEC3",
      "componentType": 5126,
      "count": 65531,
      "max": [
        25.483722686767578,
        14.764822959899902,
        -13.663485527038574
      ],
      "min": [
        18.466474533081055,
        -1.9742822647094727,
        -18.22726821899414
      ],
      "bufferView": 19,
      "byteOffset": 0
    },
    {
      "type": "VEC3",
      "componentType": 5126,
      "count": 65531,
      "bufferView": 19,
      "byteOffset": 12
    },
    {
      "type": "VEC2",
      "componentType": 5126,
      "count": 65531,
      "bufferView": 19,
      "byteOffset": 24
    },
    {
      "type": "VEC3",
      "componentType": 5126,
      "count": 65532,
      "max": [
        29.74869728088379,
        15.824522972106934,
        -16.095327377319336
      ],
      "min": [
        22.271818161010742,
        -1.0469865798950195,
        -22.650997161865234
      ],
      "bufferView": 20,
      "byteOffset": 0
    },
    {
      "type": "VEC3",
      "componentType": 5126,
      "count": 65532,
      "bufferView": 20,
      "byteOffset": 12
    },
    {
      "type": "VEC2",
      "componentType": 5126,
      "count": 65532,
      "bufferView": 20,
      "byteOffset": 24
    },
    {
      "type": "VEC3",
      "componentType": 5126,
      "count": 65531,
      "max": [
        31.276519775390625,
        18.934818267822266,
        1.0185878276824951
      ],
      "min": [
        -1.018603801727295,
        -1.1561148166656494,
        -22.656999588012695
      ],
      "bufferView": 21,
      "byteOffset": 0
    },
    {
      "type": "VEC3",
      "componentType": 5126,
      "count": 65531,
      "bufferView": 21,
      "byteOffset": 12
    },
    {
      "type": "VEC2",
      "componentType": 5126,
      "count": 65531,
      "bufferView": 21,
      "byteOffset": 24
    },
    {
      "type": "VEC3",
      "componentType": 5126,
      "count": 65532,
      "max": [
        29.145235061645508,
        16.75906753540039,
        -11.8654146194458
      ],
      "min": [
        17.686370849609375,
        -3.2717416286468506,
        -21.498594284057617
      ],
      "bufferView": 22,
      "byteOffset": 0
    },
    {
      "type": "VEC3",
      "componentType": 5126,
      "count": 65532,
      "bufferView": 22,
      "byteOffset": 12
    },
    {
      "type": "VEC2",
      "componentType": 5126,
      "count": 65532,
      "bufferView": 22,
      "byteOffset": 24
    },
    {
      "type": "VEC3",
      "componentType": 5126,
      "count": 65531,
      "max": [
        20.744224548339844,
        15.434576034545898,
        -10.50352954864502
      ],
      "min": [
        13.905091285705566,
        -3.2088124752044678,
        -14.437238693237305
      ],
      "bufferView": 23,
      "byteOffset": 0
    },
    {
      "type": "VEC3",
      "componentType": 5126,
      "count": 65531,
      "bufferView": 23,
      "byteOffset": 12
    },
    {
      "type": "VEC2",
      "componentType": 5126,
      "count": 65531,
      "bufferView": 23,
      "byteOffset": 24
    },
    {
      "type": "VEC3",
      "componentType": 5126,
      "count": 65531,
      "max": [
        17.351308822631836,
        13.326401710510254,
        -7.886806964874268
      ],
      "min": [
        12.139558792114258,
        -5.528774738311768,
        -13.119768142700195
      ],
      "bufferView": 24,
      "byteOffset": 0
    },
    {
      "type": "VEC3",
      "componentType": 5126,
      "count": 65531,
      "bufferView": 24,
      "byteOffset": 12
    },
    {
      "type": "VEC2",
      "componentType": 5126,
      "count": 65531,
      "bufferView": 24,
      "byteOffset": 24
    },
    {
      "type": "VEC3",
      "componentType": 5126,
      "count": 65532,
      "max": [
        14.029934883117676,
        8.935879707336426,
        -4.713317394256592
      ],
      "min": [
        8.569110870361328,
        -6.372936248779297,
        -11.701447486877441
      ],
      "bufferView": 25,
      "byteOffset": 0
    },
    {
      "type": "VEC3",
      "componentType": 5126,
      "count": 65532,
      "bufferView": 25,
      "byteOffset": 12
    },
    {
      "type": "VEC2",
      "componentType": 5126,
      "count": 65532,
      "bufferView": 25,
      "byteOffset": 24
    },
    {
      "type": "VEC3",
      "componentType": 5126,
      "count": 31328,
      "max": [
        10.470745086669922,
        7.693431854248047,
        -4.756580829620361
      ],
      "min": [
        5.4652276039123535,
        -7.355243682861328,
        -8.732820510864258
      ],
      "bufferView": 26,
      "byteOffset": 0
    },
    {
      "type": "VEC3",
      "componentType": 5126,
      "count": 31328,
      "bufferView": 26,
      "byteOffset": 12
    },
    {
      "type": "VEC2",
      "componentType": 5126,
      "count": 31328,
      "bufferView": 26,
      "byteOffset": 24
    },
    {
      "type": "VEC3",
      "componentType": 5126,
      "count": 53248,
      "max": [
        30.528104782104492,
        18.639524459838867,
        0.06464306265115738
      ],
      "min": [
        -1.436209797859192,
        -8.572879791259766,
        -21.98590087890625
      ],
      "bufferView": 27,
      "byteOffset": 0
    },
    {
      "type": "VEC3",
      "componentType": 5126,
      "count": 53248,
      "bufferView": 27,
      "byteOffset": 12
    },
    {
      "type": "VEC2",
      "componentType": 5126,
      "count": 53248,
      "bufferView": 27,
      "byteOffset": 24
    },
    {
      "type": "VEC3",
      "componentType": 5126,
      "count": 65531,
      "max": [
        2.4329869747161865,
        3.921685218811035,
        -0.5856481194496155
      ],
      "min": [
        -3.050729990005493,
        -10.644296646118164,
        -5.914058685302734
      ],
      "bufferView": 28,
      "byteOffset": 0
    },
    {
      "type": "VEC3",
      "componentType": 5126,
      "count": 65531,
      "bufferView": 28,
      "byteOffset": 12
    },
    {
      "type": "VEC2",
      "componentType": 5126,
      "count": 65531,
      "bufferView": 28,
      "byteOffset": 24
    },
    {
      "type": "VEC3",
      "componentType": 5126,
      "count": 65532,
      "max": [
        4.97874116897583,
        7.924163341522217,
        -2.7650949954986572
      ],
      "min": [
        -0.48547127842903137,
        -3.487955331802368,
        -7.820838451385498
      ],
      "bufferView": 29,
      "byteOffset": 0
    },
    {
      "type": "VEC3",
      "componentType": 5126,
      "count": 65532,
      "bufferView": 29,
      "byteOffset": 12
    },
    {
      "type": "VEC2",
      "componentType": 5126,
      "count": 65532,
      "bufferView": 29,
      "byteOffset": 24
    },
    {
      "type": "VEC3",
      "componentType": 5126,
      "count": 65533,
      "max": [
        15.256715774536133,
        16.0782470703125,
        -6.358906269073486
      ],
      "min": [
        0.8708519339561462,
        -3.908076763153076,
        -20.713180541992188
      ],
      "bufferView": 30,
      "byteOffset": 0
    },
    {
      "type": "VEC3",
      "componentType": 5126,
      "count": 65533,
      "bufferView": 30,
      "byteOffset": 12
    },
    {
      "type": "VEC2",
      "componentType": 5126,
      "count": 65533,
      "bufferView": 30,
      "byteOffset": 24
    },
    {
      "type": "VEC3",
      "componentType": 5126,
      "count": 65531,
      "max": [
        18.43688201904297,
        20.359704971313477,
        -18.778675079345703
      ],
      "min": [
        13.248575210571289,
        -1.867368221282959,
        -25.903100967407227
      ],
      "bufferView": 31,
      "byteOffset": 0
    },
    {
      "type": "VEC3",
      "componentType": 5126,
      "count": 65531,
      "bufferView": 31,
      "byteOffset": 12
    },
    {
      "type": "VEC2",
      "componentType": 5126,
      "count": 65531,
      "bufferView": 31,
      "byteOffset": 24
    },
    {
      "type": "VEC3",
      "componentType": 5126,
      "count": 65531,
      "max": [
        20.514392852783203,
        21.354259490966797,
        -24.46938705444336
      ],
      "min": [
        14.672874450683594,
        -0.033691320568323135,
        -31.498579025268555
      ],
      "bufferView": 32,
      "byteOffset": 0
    },
    {
      "type": "VEC3",
      "componentType": 5126,
      "count": 65531,
      "bufferView": 32,
      "byteOffset": 12
    },
    {
      "type": "VEC2",
      "componentType": 5126,
      "count": 65531,
      "bufferView": 32,
      "byteOffset": 24
    },
    {
      "type": "VEC3",
      "componentType": 5126,
      "count": 65532,
      "max": [
        22.654645919799805,
        22.262392044067383,
        1.0185643434524536
      ],
      "min": [
        -1.018595576286316,
        -1.1560877561569214,
        -31.509899139404297
      ],
      "bufferView": 33,
      "byteOffset": 0
    },
    {
      "type": "VEC3",
      "componentType": 5126,
      "count": 65532,
      "bufferView": 33,
      "byteOffset": 12
    },
    {
      "type": "VEC2",
      "componentType": 5126,
      "count": 65532,
      "bufferView": 33,
      "byteOffset": 24
    },
    {
      "type": "VEC3",
      "componentType": 5126,
      "count": 65531,
      "max": [
        21.244430541992188,
        22.02619743347168,
        -18.72939682006836
      ],
      "min": [
        11.266548156738281,
        1.9957448244094849,
        -29.549991607666016
      ],
      "bufferView": 34,
      "byteOffset": 0
    },
    {
      "type": "VEC3",
      "componentType": 5126,
      "count": 65531,
      "bufferView": 34,
      "byteOffset": 12
    },
    {
      "type": "VEC2",
      "componentType": 5126,
      "count": 65531,
      "bufferView": 34,
      "byteOffset": 24
    },
    {
      "type": "VEC3",
      "componentType": 5126,
      "count": 65533,
      "max": [
        13.985342025756836,
        15.189476013183594,
        -16.410945892333984
      ],
      "min": [
        8.317667007446289,
        1.9957448244094849,
        -22.057430267333984
      ],
      "bufferView": 35,
      "byteOffset": 0
    },
    {
      "type": "VEC3",
      "componentType": 5126,
      "count": 65533,
      "bufferView": 35,
      "byteOffset": 12
    },
    {
      "type": "VEC2",
      "componentType": 5126,
      "count": 65533,
      "bufferView": 35,
      "byteOffset": 24
    },
    {
      "type": "VEC3",
      "componentType": 5126,
      "count": 65531,
      "max": [
        12.513147354125977,
        14.079938888549805,
        -11.12770938873291
      ],
      "min": [
        7.609401702880859,
        3.592881441116333,
        -18.348209381103516
      ],
      "bufferView": 36,
      "byteOffset": 0
    },
    {
      "type": "VEC3",
      "componentType": 5126,
      "count": 65531,
      "bufferView": 36,
      "byteOffset": 12
    },
    {
      "type": "VEC2",
      "componentType": 5126,
      "count": 65531,
      "bufferView": 36,
      "byteOffset": 24
    },
    {
      "type": "VEC3",
      "componentType": 5126,
      "count": 65532,
      "max": [
        9.590600967407227,
        12.356670379638672,
        -10.054061889648438
      ],
      "min": [
        3.73783278465271,
        -3.403991460800171,
        -16.464923858642578
      ],
      "bufferView": 37,
      "byteOffset": 0
    },
    {
      "type": "VEC3",
      "componentType": 5126,
      "count": 65532,
      "bufferView": 37,
      "byteOffset": 12
    },
    {
      "type": "VEC2",
      "componentType": 5126,
      "count": 65532,
      "bufferView": 37,
      "byteOffset": 24
    },
    {
      "type": "VEC3",
      "componentType": 5126,
      "count": 31226,
      "max": [
        7.719763278961182,
        8.486298561096191,
        -6.621181488037109
      ],
      "min": [
        3.8453352451324463,
        -2.666269540786743,
        -11.984310150146484
      ],
      "bufferView": 38,
      "byteOffset": 0
    },
    {
      "type": "VEC3",
      "componentType": 5126,
      "count": 31226,
      "bufferView": 38,
      "byteOffset": 12
    },
    {
      "type": "VEC2",
      "componentType": 5126,
      "count": 31226,
      "bufferView": 38,
      "byteOffset": 24
    },
    {
      "type": "VEC3",
      "componentType": 5126,
      "count": 53248,
      "max": [
        21.896520614624023,
        22.535316467285156,
        0.0646560788154602
      ],
      "min": [
        -2.24507999420166,
        -7.695889472961426,
        -30.85610008239746
      ],
      "bufferView": 39,
      "byteOffset": 0
    },
    {
      "type": "VEC3",
      "componentType": 5126,
      "count": 53248,
      "bufferView": 39,
      "byteOffset": 12
    },
    {
      "type": "VEC2",
      "componentType": 5126,
      "count": 53248,
      "bufferView": 39,
      "byteOffset": 24
    },
    {
      "type": "VEC3",
      "componentType": 5126,
      "count": 21239,
      "max": [
        1.0186028480529785,
        1.156061053276062,
        1.0185976028442383
      ],
      "min": [
        -1.0185999870300293,
        -1.156059980392456,
        -1.0185999870300293
      ],
      "bufferView": 40,
      "byteOffset": 0
    },
    {
      "type": "VEC3",
      "componentType": 5126,
      "count": 21239,
      "bufferView": 40,
      "byteOffset": 12
    },
    {
      "type": "VEC2",
      "componentType": 5126,
      "count": 21239,
      "bufferView": 40,
      "byteOffset": 24
    },
    {
      "type": "VEC3",
      "componentType": 5126,
      "count": 1664,
      "max": [
        0.3055417537689209,
        1.6403899192810059,
        0.0646369457244873
      ],
      "min": [
        -0.30906999111175537,
        -1.3402099609375,
        -0.0645819753408432
      ],
      "bufferView": 41,
      "byteOffset": 0
    },
    {
      "type": "VEC3",
      "componentType": 5126,
      "count": 1664,
      "bufferView": 41,
      "byteOffset": 12
    },
    {
      "type": "VEC2",
      "componentType": 5126,
      "count": 1664,
      "bufferView": 41,
      "byteOffset": 24
    },
    {
      "type": "VEC3",
      "componentType": 5126,
      "count": 21239,
      "max": [
        1.0186028480529785,
        1.156061053276062,
        1.0185976028442383
      ],
      "min": [
        -1.0185999870300293,
        -1.156059980392456,
        -1.0185999870300293
      ],
      "bufferView": 42,
      "byteOffset": 0
    },
    {
      "type": "VEC3",
      "componentType": 5126,
      "count": 21239,
      "bufferView": 42,
      "byteOffset": 12
    },
    {
      "type": "VEC2",
      "componentType": 5126,
      "count": 21239,
      "bufferView": 42,
      "byteOffset": 24
    },
    {
      "type": "VEC3",
      "componentType": 5126,
      "count": 1664,
      "max": [
        0.3055417537689209,
        1.6403899192810059,
        0.0646369457244873
      ],
      "min": [
        -0.30906999111175537,
        -1.3402099609375,
        -0.0645819753408432
      ],
      "bufferView": 43,
      "byteOffset": 0
    },
    {
      "type": "VEC3",
      "componentType": 5126,
      "count": 1664,
      "bufferView": 43,
      "byteOffset": 12
    },
    {
      "type": "VEC2",
      "componentType": 5126,
      "count": 1664,
      "bufferView": 43,
      "byteOffset": 24
    },
    {
      "type": "VEC3",
      "componentType": 5126,
      "count": 21239,
      "max": [
        1.0186028480529785,
        1.156061053276062,
        1.0185976028442383
      ],
      "min": [
        -1.0185999870300293,
        -1.156059980392456,
        -1.0185999870300293
      ],
      "bufferView": 44,
      "byteOffset": 0
    },
    {
      "type": "VEC3",
      "componentType": 5126,
      "count": 21239,
      "bufferView": 44,
      "byteOffset": 12
    },
    {
      "type": "VEC2",
      "componentType": 5126,
      "count": 21239,
      "bufferView": 44,
      "byteOffset": 24
    },
    {
      "type": "VEC3",
      "componentType": 5126,
      "count": 1664,
      "max": [
        0.3055417537689209,
        1.6403899192810059,
        0.0646369457244873
      ],
      "min": [
        -0.30906999111175537,
        -1.3402099609375,
        -0.0645819753408432
      ],
      "bufferView": 45,
      "byteOffset": 0
    },
    {
      "type": "VEC3",
      "componentType": 5126,
      "count": 1664,
      "bufferView": 45,
      "byteOffset": 12
    },
    {
      "type": "VEC2",
      "componentType": 5126,
      "count": 1664,
      "bufferView": 45,
      "byteOffset": 24
    },
    {
      "type": "VEC3",
      "componentType": 5126,
      "count": 21239,
      "max": [
        1.0186028480529785,
        1.156061053276062,
        1.0185976028442383
      ],
      "min": [
        -1.0185999870300293,
        -1.156059980392456,
        -1.0185999870300293
      ],
      "bufferView": 46,
      "byteOffset": 0
    },
    {
      "type": "VEC3",
      "componentType": 5126,
      "count": 21239,
      "bufferView": 46,
      "byteOffset": 12
    },
    {
      "type": "VEC2",
      "componentType": 5126,
      "count": 21239,
      "bufferView": 46,
      "byteOffset": 24
    },
    {
      "type": "VEC3",
      "componentType": 5126,
      "count": 1664,
      "max": [
        0.3055417537689209,
        1.6403899192810059,
        0.0646369457244873
      ],
      "min": [
        -0.30906999111175537,
        -1.3402099609375,
        -0.0645819753408432
      ],
      "bufferView": 47,
      "byteOffset": 0
    },
    {
      "type": "VEC3",
      "componentType": 5126,
      "count": 1664,
      "bufferView": 47,
      "byteOffset": 12
    },
    {
      "type": "VEC2",
      "componentType": 5126,
      "count": 1664,
      "bufferView": 47,
      "byteOffset": 24
    },
    {
      "type": "VEC3",
      "componentType": 5126,
      "count": 21239,
      "max": [
        1.0186028480529785,
        1.156061053276062,
        1.0185976028442383
      ],
      "min": [
        -1.0185999870300293,
        -1.156059980392456,
        -1.0185999870300293
      ],
      "bufferView": 48,
      "byteOffset": 0
    },
    {
      "type": "VEC3",
      "componentType": 5126,
      "count": 21239,
      "bufferView": 48,
      "byteOffset": 12
    },
    {
      "type": "VEC2",
      "componentType": 5126,
      "count": 21239,
      "bufferView": 48,
      "byteOffset": 24
    },
    {
      "type": "VEC3",
      "componentType": 5126,
      "count": 1664,
      "max": [
        0.3055417537689209,
        1.6403899192810059,
        0.0646369457244873
      ],
      "min": [
        -0.30906999111175537,
        -1.3402099609375,
        -0.0645819753408432
      ],
      "bufferView": 49,
      "byteOffset": 0
    },
    {
      "type": "VEC3",
      "componentType": 5126,
      "count": 1664,
      "bufferView": 49,
      "byteOffset": 12
    },
    {
      "type": "VEC2",
      "componentType": 5126,
      "count": 1664,
      "bufferView": 49,
      "byteOffset": 24
    },
    {
      "type": "VEC3",
      "componentType": 5126,
      "count": 21239,
      "max": [
        1.0186028480529785,
        1.156061053276062,
        1.0185976028442383
      ],
      "min": [
        -1.0185999870300293,
        -1.156059980392456,
        -1.0185999870300293
      ],
      "bufferView": 50,
      "byteOffset": 0
    },
    {
      "type": "VEC3",
      "componentType": 5126,
      "count": 21239,
      "bufferView": 50,
      "byteOffset": 12
    },
    {
      "type": "VEC2",
      "componentType": 5126,
      "count": 21239,
      "bufferView": 50,
      "byteOffset": 24
    },
    {
      "type": "VEC3",
      "componentType": 5126,
      "count": 1664,
      "max": [
        0.3055417537689209,
        1.6403899192810059,
        0.0646369457244873
      ],
      "min": [
        -0.30906999111175537,
        -1.3402099609375,
        -0.0645819753408432
      ],
      "bufferView": 51,
      "byteOffset": 0
    },
    {
      "type": "VEC3",
      "componentType": 5126,
      "count": 1664,
      "bufferView": 51,
      "byteOffset": 12
    },
    {
      "type": "VEC2",
      "componentType": 5126,
      "count": 1664,
      "bufferView": 51,
      "byteOffset": 24
    },
    {
      "type": "VEC3",
      "componentType": 5126,
      "count": 21239,
      "max": [
        1.0186028480529785,
        1.156061053276062,
        1.0185976028442383
      ],
      "min": [
        -1.0185999870300293,
        -1.156059980392456,
        -1.0185999870300293
      ],
      "bufferView": 52,
      "byteOffset": 0
    },
    {
      "type": "VEC3",
      "componentType": 5126,
      "count": 21239,
      "bufferView": 52,
      "byteOffset": 12
    },
    {
      "type": "VEC2",
      "componentType": 5126,
      "count": 21239,
      "bufferView": 52,
      "byteOffset": 24
    },
    {
      "type": "VEC3",
      "componentType": 5126,
      "count": 1664,
      "max": [
        0.3055417537689209,
        1.6403899192810059,
        0.0646369457244873
      ],
      "min": [
        -0.30906999111175537,
        -1.3402099609375,
        -0.0645819753408432
      ],
      "bufferView": 53,
      "byteOffset": 0
    },
    {
      "type": "VEC3",
      "componentType": 5126,
      "count": 1664,
      "bufferView": 53,
      "byteOffset": 12
    },
    {
      "type": "VEC2",
      "componentType": 5126,
      "count": 1664,
      "bufferView": 53,
      "byteOffset": 24
    },
    {
      "type": "VEC3",
      "componentType": 5126,
      "count": 21239,
      "max": [
        1.0186028480529785,
        1.156061053276062,
        1.0185976028442383
      ],
      "min": [
        -1.0185999870300293,
        -1.156059980392456,
        -1.0185999870300293
      ],
      "bufferView": 54,
      "byteOffset": 0
    },
    {
      "type": "VEC3",
      "componentType": 5126,
      "count": 21239,
      "bufferView": 54,
      "byteOffset": 12
    },
    {
      "type": "VEC2",
      "componentType": 5126,
      "count": 21239,
      "bufferView": 54,
      "byteOffset": 24
    },
    {
      "type": "VEC3",
      "componentType": 5126,
      "count": 1664,
      "max": [
        0.3055417537689209,
        1.6403899192810059,
        0.0646369457244873
      ],
      "min": [
        -0.30906999111175537,
        -1.3402099609375,
        -0.0645819753408432
      ],
      "bufferView": 55,
      "byteOffset": 0
    },
    {
      "type": "VEC3",
      "componentType": 5126,
      "count": 1664,
      "bufferView": 55,
      "byteOffset": 12
    },
    {
      "type": "VEC2",
      "componentType": 5126,
      "count": 1664,
      "bufferView": 55,
      "byteOffset": 24
    },
    {
      "type": "VEC3",
      "componentType": 5126,
      "count": 10716,
      "max": [
        0.18179014325141907,
        0.3941868245601654,
        0.4834147095680237
      ],
      "min": [
        -0.2018589973449707,
        -0.36372700333595276,
        -0.4044170081615448
      ],
      "bufferView": 56,
      "byteOffset": 0
    },
    {
      "type": "VEC3",
      "componentType": 5126,
      "count": 10716,
      "bufferView": 56,
      "byteOffset": 12
    },
    {
      "type": "VEC4",
      "componentType": 5121,
      "count": 10716,
      "normalized": true,
      "bufferView": 56,
      "byteOffset": 24
    },
    {
      "type": "VEC2",
      "componentType": 5126,
      "count": 10716,
      "bufferView": 56,
      "byteOffset": 28
    },
    {
      "type": "VEC3",
      "componentType": 5126,
      "count": 10716,
      "max": [
        0.18179014325141907,
        0.3941868245601654,
        0.4834147095680237
      ],
      "min": [
        -0.2018589973449707,
        -0.36372700333595276,
        -0.4044170081615448
      ],
      "bufferView": 57,
      "byteOffset": 0
    },
    {
      "type": "VEC3",
      "componentType": 5126,
      "count": 10716,
      "bufferView": 57,
      "byteOffset": 12
    },
    {
      "type": "VEC4",
      "componentType": 5121,
      "count": 10716,
      "normalized": true,
      "bufferView": 57,
      "byteOffset": 24
    },
    {
      "type": "VEC2",
      "componentType": 5126,
      "count": 10716,
      "bufferView": 57,
      "byteOffset": 28
    },
    {
      "type": "VEC3",
      "componentType": 5126,
      "count": 65533,
      "max": [
        1.1288856267929077,
        1.3379507064819336,
        2.018362283706665
      ],
      "min": [
        -0.9418818354606628,
        -1.483924388885498,
        -1.5856599807739258
      ],
      "bufferView": 58,
      "byteOffset": 0
    },
    {
      "type": "VEC3",
      "componentType": 5126,
      "count": 65533,
      "bufferView": 58,
      "byteOffset": 12
    },
    {
      "type": "VEC2",
      "componentType": 5126,
      "count": 65533,
      "bufferView": 58,
      "byteOffset": 24
    },
    {
      "type": "VEC3",
      "componentType": 5126,
      "count": 65531,
      "max": [
        1.1288856267929077,
        1.3379507064819336,
        1.999588966369629
      ],
      "min": [
        -0.9433640241622925,
        -1.4868500232696533,
        -1.5856599807739258
      ],
      "bufferView": 59,
      "byteOffset": 0
    },
    {
      "type": "VEC3",
      "componentType": 5126,
      "count": 65531,
      "bufferView": 59,
      "byteOffset": 12
    },
    {
      "type": "VEC2",
      "componentType": 5126,
      "count": 65531,
      "bufferView": 59,
      "byteOffset": 24
    },
    {
      "type": "VEC3",
      "componentType": 5126,
      "count": 23516,
      "max": [
        0.35015419125556946,
        1.3379507064819336,
        1.9584884643554688
      ],
      "min": [
        -0.9423165917396545,
        -1.4868500232696533,
        -1.1900601387023926
      ],
      "bufferView": 60,
      "byteOffset": 0
    },
    {
      "type": "VEC3",
      "componentType": 5126,
      "count": 23516,
      "bufferView": 60,
      "byteOffset": 12
    },
    {
      "type": "VEC2",
      "componentType": 5126,
      "count": 23516,
      "bufferView": 60,
      "byteOffset": 24
    }
  ],
  "bufferViews": [
    {
      "buffer": 0,
      "byteOffset": 0,
      "byteLength": 2097056,
      "byteStride": 32,
      "target": 34962
    },
    {
      "buffer": 0,
      "byteOffset": 2097056,
      "byteLength": 7212876,
      "target": 34963
    },
    {
      "buffer": 0,
      "byteOffset": 9309932,
      "byteLength": 1985376,
      "byteStride": 32,
      "target": 34962
    },
    {
      "buffer": 0,
      "byteOffset": 11295308,
      "byteLength": 2097056,
      "byteStride": 32,
      "target": 34962
    },
    {
      "buffer": 0,
      "byteOffset": 13392364,
      "byteLength": 2096992,
      "byteStride": 32,
      "target": 34962
    },
    {
      "buffer": 0,
      "byteOffset": 15489356,
      "byteLength": 2097024,
      "byteStride": 32,
      "target": 34962
    },
    {
      "buffer": 0,
      "byteOffset": 17586380,
      "byteLength": 2097056,
      "byteStride": 32,
      "target": 34962
    },
    {
      "buffer": 0,
      "byteOffset": 19683436,
      "byteLength": 2096992,
      "byteStride": 32,
      "target": 34962
    },
    {
      "buffer": 0,
      "byteOffset": 21780428,
      "byteLength": 2097056,
      "byteStride": 32,
      "target": 34962
    },
    {
      "buffer": 0,
      "byteOffset": 23877484,
      "byteLength": 2097056,
      "byteStride": 32,
      "target": 34962
    },
    {
      "buffer": 0,
      "byteOffset": 25974540,
      "byteLength": 176192,
      "byteStride": 32,
      "target": 34962
    },
    {
      "buffer": 0,
      "byteOffset": 26150732,
      "byteLength": 2096992,
      "byteStride": 32,
      "target": 34962
    },
    {
      "buffer": 0,
      "byteOffset": 28247724,
      "byteLength": 2097056,
      "byteStride": 32,
      "target": 34962
    },
    {
      "buffer": 0,
      "byteOffset": 30344780,
      "byteLength": 463584,
      "byteStride": 32,
      "target": 34962
    },
    {
      "buffer": 0,
      "byteOffset": 30808364,
      "byteLength": 679648,
      "byteStride": 32,
      "target": 34962
    },
    {
      "buffer": 0,
      "byteOffset": 31488012,
      "byteLength": 53248,
      "byteStride": 32,
      "target": 34962
    },
    {
      "buffer": 0,
      "byteOffset": 31541260,
      "byteLength": 2096992,
      "byteStride": 32,
      "target": 34962
    },
    {
      "buffer": 0,
      "byteOffset": 33638252,
      "byteLength": 2097024,
      "byteStride": 32,
      "target": 34962
    },
    {
      "buffer": 0,
      "byteOffset": 35735276,
      "byteLength": 2097056,
      "byteStride": 32,
      "target": 34962
    },
    {
      "buffer": 0,
      "byteOffset": 37832332,
      "byteLength": 2096992,
      "byteStride": 32,
      "target": 34962
    },
    {
      "buffer": 0,
      "byteOffset": 39929324,
      "byteLength": 2097024,
      "byteStride": 32,
      "target": 34962
    },
    {
      "buffer": 0,
      "byteOffset": 42026348,
      "byteLength": 2096992,
      "byteStride": 32,
      "target": 34962
    },
    {
      "buffer": 0,
      "byteOffset": 44123340,
      "byteLength": 2097024,
      "byteStride": 32,
      "target": 34962
    },
    {
      "buffer": 0,
      "byteOffset": 46220364,
      "byteLength": 2096992,
      "byteStride": 32,
      "target": 34962
    },
    {
      "buffer": 0,
      "byteOffset": 48317356,
      "byteLength": 2096992,
      "byteStride": 32,
      "target": 34962
    },
    {
      "buffer": 0,
      "byteOffset": 50414348,
      "byteLength": 2097024,
      "byteStride": 32,
      "target": 34962
    },
    {
      "buffer": 0,
      "byteOffset": 52511372,
      "byteLength": 1002496,
      "byteStride": 32,
      "target": 34962
    },
    {
      "buffer": 0,
      "byteOffset": 53513868,
      "byteLength": 1703936,
      "byteStride": 32,
      "target": 34962
    },
    {
      "buffer": 0,
      "byteOffset": 55217804,
      "byteLength": 2096992,
      "byteStride": 32,
      "target": 34962
    },
    {
      "buffer": 0,
      "byteOffset": 57314796,
      "byteLength": 2097024,
      "byteStride": 32,
      "target": 34962
    },
    {
      "buffer": 0,
      "byteOffset": 59411820,
      "byteLength": 2097056,
      "byteStride": 32,
      "target": 34962
    },
    {
      "buffer": 0,
      "byteOffset": 61508876,
      "byteLength": 2096992,
      "byteStride": 32,
      "target": 34962
    },
    {
      "buffer": 0,
      "byteOffset": 63605868,
      "byteLength": 2096992,
      "byteStride": 32,
      "target": 34962
    },
    {
      "buffer": 0,
      "byteOffset": 65702860,
      "byteLength": 2097024,
      "byteStride": 32,
      "target": 34962
    },
    {
      "buffer": 0,
      "byteOffset": 67799884,
      "byteLength": 2096992,
      "byteStride": 32,
      "target": 34962
    },
    {
      "buffer": 0,
      "byteOffset": 69896876,
      "byteLength": 2097056,
      "byteStride": 32,
      "target": 34962
    },
    {
      "buffer": 0,
      "byteOffset": 71993932,
      "byteLength": 2096992,
      "byteStride": 32,
      "target": 34962
    },
    {
      "buffer": 0,
      "byteOffset": 74090924,
      "byteLength": 2097024,
      "byteStride": 32,
      "target": 34962
    },
    {
      "buffer": 0,
      "byteOffset": 76187948,
      "byteLength": 999232,
      "byteStride": 32,
      "target": 34962
    },
    {
      "buffer": 0,
      "byteOffset": 77187180,
      "byteLength": 1703936,
      "byteStride": 32,
      "target": 34962
    },
    {
      "buffer": 0,
      "byteOffset": 78891116,
      "byteLength": 679648,
      "byteStride": 32,
      "target": 34962
    },
    {
      "buffer": 0,
      "byteOffset": 79570764,
      "byteLength": 53248,
      "byteStride": 32,
      "target": 34962
    },
    {
      "buffer": 0,
      "byteOffset": 79624012,
      "byteLength": 679648,
      "byteStride": 32,
      "target": 34962
    },
    {
      "buffer": 0,
      "byteOffset": 80303660,
      "byteLength": 53248,
      "byteStride": 32,
      "target": 34962
    },
    {
      "buffer": 0,
      "byteOffset": 80356908,
      "byteLength": 679648,
      "byteStride": 32,
      "target": 34962
    },
    {
      "buffer": 0,
      "byteOffset": 81036556,
      "byteLength": 53248,
      "byteStride": 32,
      "target": 34962
    },
    {
      "buffer": 0,
      "byteOffset": 81089804,
      "byteLength": 679648,
      "byteStride": 32,
      "target": 34962
    },
    {
      "buffer": 0,
      "byteOffset": 81769452,
      "byteLength": 53248,
      "byteStride": 32,
      "target": 34962
    },
    {
      "buffer": 0,
      "byteOffset": 81822700,
      "byteLength": 679648,
      "byteStride": 32,
      "target": 34962
    },
    {
      "buffer": 0,
      "byteOffset": 82502348,
      "byteLength": 53248,
      "byteStride": 32,
      "target": 34962
    },
    {
      "buffer": 0,
      "byteOffset": 82555596,
      "byteLength": 679648,
      "byteStride": 32,
      "target": 34962
    },
    {
      "buffer": 0,
      "byteOffset": 83235244,
      "byteLength": 53248,
      "byteStride": 32,
      "target": 34962
    },
    {
      "buffer": 0,
      "byteOffset": 83288492,
      "byteLength": 679648,
      "byteStride": 32,
      "target": 34962
    },
    {
      "buffer": 0,
      "byteOffset": 83968140,
      "byteLength": 53248,
      "byteStride": 32,
      "target": 34962
    },
    {
      "buffer": 0,
      "byteOffset": 84021388,
      "byteLength": 679648,
      "byteStride": 32,
      "target": 34962
    },
    {
      "buffer": 0,
      "byteOffset": 84701036,
      "byteLength": 53248,
      "byteStride": 32,
      "target": 34962
    },
    {
      "buffer": 0,
      "byteOffset": 84754284,
      "byteLength": 385776,
      "byteStride": 36,
      "target": 34962
    },
    {
      "buffer": 0,
      "byteOffset": 85140060,
      "byteLength": 385776,
      "byteStride": 36,
      "target": 34962
    },
    {
      "buffer": 0,
      "byteOffset": 85525836,
      "byteLength": 2097056,
      "byteStride": 32,
      "target": 34962
    },
    {
      "buffer": 0,
      "byteOffset": 87622892,
      "byteLength": 2096992,
      "byteStride": 32,
      "target": 34962
    },
    {
      "buffer": 0,
      "byteOffset": 89719884,
      "byteLength": 752512,
      "byteStride": 32,
      "target": 34962
    }
  ],
  "samplers": [
    {
      "magFilter": 9729,
      "minFilter": 9987,
      "wrapS": 10497,
      "wrapT": 10497
    }
  ],
  "textures": [
    {
      "source": 0,
      "sampler": 0
    },
    {
      "source": 1,
      "sampler": 0
    },
    {
      "source": 2,
      "sampler": 0
    },
    {
      "source": 3,
      "sampler": 0
    },
    {
      "source": 4,
      "sampler": 0
    },
    {
      "source": 5,
      "sampler": 0
    }
  ],
  "images": [
    {
      "name": "Untitled_0.png",
      "mimeType": "image/png",
      "uri": "images/Untitled_0.png"
    },
    {
      "name": "1_1.png",
      "mimeType": "image/png",
      "uri": "images/1_1.png"
    },
    {
      "name": "Untitled_2.png",
      "mimeType": "image/png",
      "uri": "images/Untitled_2.png"
    },
    {
      "name": "2_3.png",
      "mimeType": "image/png",
      "uri": "images/2_3.png"
    },
    {
      "name": "AO_4.jpeg",
      "mimeType": "image/jpeg",
      "uri": "images/AO_4.jpg"
    },
    {
      "name": "Untitled_5.png",
      "mimeType": "image/png",
      "uri": "images/Untitled_5.png"
    }
  ],
  "buffers": [
    {
      "uri": "50._Trang_phục_nam_Bana_3.bin",
      "byteLength": 90472396
    }
  ],
  "materials": [
    {
      "name": "Material.001",
      "doubleSided": true,
      "pbrMetallicRoughness": {
        "roughnessFactor": 0.5,
        "metallicFactor": 0,
        "baseColorTexture": {
          "index": 0
        }
      },
      "extensions": {
        "KHR_materials_unlit": {}
      }
    },
    {
      "name": "Material.002",
      "doubleSided": true,
      "pbrMetallicRoughness": {
        "roughnessFactor": 0.5,
        "metallicFactor": 0,
        "baseColorTexture": {
          "index": 1
        }
      },
      "extensions": {
        "KHR_materials_unlit": {}
      }
    },
    {
      "name": "Material.003",
      "doubleSided": true,
      "pbrMetallicRoughness": {
        "roughnessFactor": 0.5,
        "metallicFactor": 0,
        "baseColorTexture": {
          "index": 2
        }
      },
      "extensions": {
        "KHR_materials_unlit": {}
      }
    },
    {
      "name": "Material.004",
      "alphaMode": "BLEND",
      "doubleSided": true,
      "pbrMetallicRoughness": {
        "baseColorFactor": [
          1,
          1,
          1,
          0.859091
        ],
        "roughnessFactor": 0.5,
        "metallicFactor": 0,
        "baseColorTexture": {
          "index": 3
        }
      },
      "extensions": {
        "KHR_materials_unlit": {}
      }
    },
    {
      "name": "Material.005",
      "doubleSided": true,
      "pbrMetallicRoughness": {
        "roughnessFactor": 0.5,
        "metallicFactor": 0,
        "baseColorTexture": {
          "index": 1
        }
      },
      "extensions": {
        "KHR_materials_unlit": {}
      }
    },
    {
      "name": "AO",
      "doubleSided": true,
      "pbrMetallicRoughness": {
        "metallicFactor": 0,
        "baseColorTexture": {
          "index": 4
        }
      },
      "extensions": {
        "KHR_materials_unlit": {}
      }
    },
    {
      "name": "Material.006",
      "doubleSided": true,
      "pbrMetallicRoughness": {
        "roughnessFactor": 0.5,
        "metallicFactor": 0,
        "baseColorTexture": {
          "index": 5
        }
      },
      "extensions": {
        "KHR_materials_unlit": {}
      }
    }
  ],
  "meshes": [
    {
      "name": "GeometryNode_5",
      "primitives": [
        {
          "attributes": {
            "POSITION": 0,
            "NORMAL": 1,
            "TEXCOORD_0": 2
          },
          "mode": 4,
          "material": 0,
          "indices": 3
        }
      ]
    },
    {
      "name": "GeometryNode_17",
      "primitives": [
        {
          "attributes": {
            "POSITION": 63,
            "NORMAL": 64,
            "TEXCOORD_0": 65
          },
          "mode": 4,
          "material": 0,
          "indices": 4
        }
      ]
    },
    {
      "name": "GeometryNode_35",
      "primitives": [
        {
          "attributes": {
            "POSITION": 66,
            "NORMAL": 67,
            "TEXCOORD_0": 68
          },
          "mode": 4,
          "material": 1,
          "indices": 5
        }
      ]
    },
    {
      "name": "GeometryNode_47",
      "primitives": [
        {
          "attributes": {
            "POSITION": 69,
            "NORMAL": 70,
            "TEXCOORD_0": 71
          },
          "mode": 4,
          "material": 1,
          "indices": 6
        }
      ]
    },
    {
      "name": "GeometryNode_55",
      "primitives": [
        {
          "attributes": {
            "POSITION": 72,
            "NORMAL": 73,
            "TEXCOORD_0": 74
          },
          "mode": 4,
          "material": 1,
          "indices": 7
        }
      ]
    },
    {
      "name": "GeometryNode_63",
      "primitives": [
        {
          "attributes": {
            "POSITION": 75,
            "NORMAL": 76,
            "TEXCOORD_0": 77
          },
          "mode": 4,
          "material": 1,
          "indices": 8
        }
      ]
    },
    {
      "name": "GeometryNode_71",
      "primitives": [
        {
          "attributes": {
            "POSITION": 78,
            "NORMAL": 79,
            "TEXCOORD_0": 80
          },
          "mode": 4,
          "material": 1,
          "indices": 9
        }
      ]
    },
    {
      "name": "GeometryNode_79",
      "primitives": [
        {
          "attributes": {
            "POSITION": 81,
            "NORMAL": 82,
            "TEXCOORD_0": 83
          },
          "mode": 4,
          "material": 1,
          "indices": 10
        }
      ]
    },
    {
      "name": "GeometryNode_87",
      "primitives": [
        {
          "attributes": {
            "POSITION": 84,
            "NORMAL": 85,
            "TEXCOORD_0": 86
          },
          "mode": 4,
          "material": 1,
          "indices": 11
        }
      ]
    },
    {
      "name": "GeometryNode_95",
      "primitives": [
        {
          "attributes": {
            "POSITION": 87,
            "NORMAL": 88,
            "TEXCOORD_0": 89
          },
          "mode": 4,
          "material": 1,
          "indices": 12
        }
      ]
    },
    {
      "name": "GeometryNode_137",
      "primitives": [
        {
          "attributes": {
            "POSITION": 90,
            "NORMAL": 91,
            "TEXCOORD_0": 92
          },
          "mode": 4,
          "material": 2,
          "indices": 13
        }
      ]
    },
    {
      "name": "GeometryNode_149",
      "primitives": [
        {
          "attributes": {
            "POSITION": 93,
            "NORMAL": 94,
            "TEXCOORD_0": 95
          },
          "mode": 4,
          "material": 2,
          "indices": 14
        }
      ]
    },
    {
      "name": "GeometryNode_157",
      "primitives": [
        {
          "attributes": {
            "POSITION": 96,
            "NORMAL": 97,
            "TEXCOORD_0": 98
          },
          "mode": 4,
          "material": 2,
          "indices": 15
        }
      ]
    },
    {
      "name": "GeometryNode_179",
      "primitives": [
        {
          "attributes": {
            "POSITION": 99,
            "NORMAL": 100,
            "TEXCOORD_0": 101
          },
          "mode": 4,
          "material": 3,
          "indices": 16
        }
      ]
    },
    {
      "name": "GeometryNode_191",
      "primitives": [
        {
          "attributes": {
            "POSITION": 102,
            "NORMAL": 103,
            "TEXCOORD_0": 104
          },
          "mode": 4,
          "material": 4,
          "indices": 17
        }
      ]
    },
    {
      "name": "GeometryNode_213",
      "primitives": [
        {
          "attributes": {
            "POSITION": 105,
            "NORMAL": 106,
            "TEXCOORD_0": 107
          },
          "mode": 4,
          "material": 3,
          "indices": 18
        }
      ]
    },
    {
      "name": "GeometryNode_221",
      "primitives": [
        {
          "attributes": {
            "POSITION": 108,
            "NORMAL": 109,
            "TEXCOORD_0": 110
          },
          "mode": 4,
          "material": 3,
          "indices": 19
        }
      ]
    },
    {
      "name": "GeometryNode_229",
      "primitives": [
        {
          "attributes": {
            "POSITION": 111,
            "NORMAL": 112,
            "TEXCOORD_0": 113
          },
          "mode": 4,
          "material": 3,
          "indices": 20
        }
      ]
    },
    {
      "name": "GeometryNode_237",
      "primitives": [
        {
          "attributes": {
            "POSITION": 114,
            "NORMAL": 115,
            "TEXCOORD_0": 116
          },
          "mode": 4,
          "material": 3,
          "indices": 21
        }
      ]
    },
    {
      "name": "GeometryNode_245",
      "primitives": [
        {
          "attributes": {
            "POSITION": 117,
            "NORMAL": 118,
            "TEXCOORD_0": 119
          },
          "mode": 4,
          "material": 3,
          "indices": 22
        }
      ]
    },
    {
      "name": "GeometryNode_253",
      "primitives": [
        {
          "attributes": {
            "POSITION": 120,
            "NORMAL": 121,
            "TEXCOORD_0": 122
          },
          "mode": 4,
          "material": 3,
          "indices": 23
        }
      ]
    },
    {
      "name": "GeometryNode_261",
      "primitives": [
        {
          "attributes": {
            "POSITION": 123,
            "NORMAL": 124,
            "TEXCOORD_0": 125
          },
          "mode": 4,
          "material": 3,
          "indices": 24
        }
      ]
    },
    {
      "name": "GeometryNode_269",
      "primitives": [
        {
          "attributes": {
            "POSITION": 126,
            "NORMAL": 127,
            "TEXCOORD_0": 128
          },
          "mode": 4,
          "material": 3,
          "indices": 25
        }
      ]
    },
    {
      "name": "GeometryNode_277",
      "primitives": [
        {
          "attributes": {
            "POSITION": 129,
            "NORMAL": 130,
            "TEXCOORD_0": 131
          },
          "mode": 4,
          "material": 3,
          "indices": 26
        }
      ]
    },
    {
      "name": "GeometryNode_285",
      "primitives": [
        {
          "attributes": {
            "POSITION": 132,
            "NORMAL": 133,
            "TEXCOORD_0": 134
          },
          "mode": 4,
          "material": 3,
          "indices": 27
        }
      ]
    },
    {
      "name": "GeometryNode_293",
      "primitives": [
        {
          "attributes": {
            "POSITION": 135,
            "NORMAL": 136,
            "TEXCOORD_0": 137
          },
          "mode": 4,
          "material": 3,
          "indices": 28
        }
      ]
    },
    {
      "name": "GeometryNode_301",
      "primitives": [
        {
          "attributes": {
            "POSITION": 138,
            "NORMAL": 139,
            "TEXCOORD_0": 140
          },
          "mode": 4,
          "material": 4,
          "indices": 29
        }
      ]
    },
    {
      "name": "GeometryNode_359",
      "primitives": [
        {
          "attributes": {
            "POSITION": 141,
            "NORMAL": 142,
            "TEXCOORD_0": 143
          },
          "mode": 4,
          "material": 3,
          "indices": 30
        }
      ]
    },
    {
      "name": "GeometryNode_367",
      "primitives": [
        {
          "attributes": {
            "POSITION": 144,
            "NORMAL": 145,
            "TEXCOORD_0": 146
          },
          "mode": 4,
          "material": 3,
          "indices": 31
        }
      ]
    },
    {
      "name": "GeometryNode_375",
      "primitives": [
        {
          "attributes": {
            "POSITION": 147,
            "NORMAL": 148,
            "TEXCOORD_0": 149
          },
          "mode": 4,
          "material": 3,
          "indices": 32
        }
      ]
    },
    {
      "name": "GeometryNode_383",
      "primitives": [
        {
          "attributes": {
            "POSITION": 150,
            "NORMAL": 151,
            "TEXCOORD_0": 152
          },
          "mode": 4,
          "material": 3,
          "indices": 33
        }
      ]
    },
    {
      "name": "GeometryNode_391",
      "primitives": [
        {
          "attributes": {
            "POSITION": 153,
            "NORMAL": 154,
            "TEXCOORD_0": 155
          },
          "mode": 4,
          "material": 3,
          "indices": 34
        }
      ]
    },
    {
      "name": "GeometryNode_399",
      "primitives": [
        {
          "attributes": {
            "POSITION": 156,
            "NORMAL": 157,
            "TEXCOORD_0": 158
          },
          "mode": 4,
          "material": 3,
          "indices": 35
        }
      ]
    },
    {
      "name": "GeometryNode_407",
      "primitives": [
        {
          "attributes": {
            "POSITION": 159,
            "NORMAL": 160,
            "TEXCOORD_0": 161
          },
          "mode": 4,
          "material": 3,
          "indices": 36
        }
      ]
    },
    {
      "name": "GeometryNode_415",
      "primitives": [
        {
          "attributes": {
            "POSITION": 162,
            "NORMAL": 163,
            "TEXCOORD_0": 164
          },
          "mode": 4,
          "material": 3,
          "indices": 37
        }
      ]
    },
    {
      "name": "GeometryNode_423",
      "primitives": [
        {
          "attributes": {
            "POSITION": 165,
            "NORMAL": 166,
            "TEXCOORD_0": 167
          },
          "mode": 4,
          "material": 3,
          "indices": 38
        }
      ]
    },
    {
      "name": "GeometryNode_431",
      "primitives": [
        {
          "attributes": {
            "POSITION": 168,
            "NORMAL": 169,
            "TEXCOORD_0": 170
          },
          "mode": 4,
          "material": 3,
          "indices": 39
        }
      ]
    },
    {
      "name": "GeometryNode_439",
      "primitives": [
        {
          "attributes": {
            "POSITION": 171,
            "NORMAL": 172,
            "TEXCOORD_0": 173
          },
          "mode": 4,
          "material": 3,
          "indices": 40
        }
      ]
    },
    {
      "name": "GeometryNode_447",
      "primitives": [
        {
          "attributes": {
            "POSITION": 174,
            "NORMAL": 175,
            "TEXCOORD_0": 176
          },
          "mode": 4,
          "material": 4,
          "indices": 41
        }
      ]
    },
    {
      "name": "GeometryNode_505",
      "primitives": [
        {
          "attributes": {
            "POSITION": 177,
            "NORMAL": 178,
            "TEXCOORD_0": 179
          },
          "mode": 4,
          "material": 3,
          "indices": 42
        }
      ]
    },
    {
      "name": "GeometryNode_513",
      "primitives": [
        {
          "attributes": {
            "POSITION": 180,
            "NORMAL": 181,
            "TEXCOORD_0": 182
          },
          "mode": 4,
          "material": 4,
          "indices": 43
        }
      ]
    },
    {
      "name": "GeometryNode_531",
      "primitives": [
        {
          "attributes": {
            "POSITION": 183,
            "NORMAL": 184,
            "TEXCOORD_0": 185
          },
          "mode": 4,
          "material": 3,
          "indices": 44
        }
      ]
    },
    {
      "name": "GeometryNode_539",
      "primitives": [
        {
          "attributes": {
            "POSITION": 186,
            "NORMAL": 187,
            "TEXCOORD_0": 188
          },
          "mode": 4,
          "material": 4,
          "indices": 45
        }
      ]
    },
    {
      "name": "GeometryNode_557",
      "primitives": [
        {
          "attributes": {
            "POSITION": 189,
            "NORMAL": 190,
            "TEXCOORD_0": 191
          },
          "mode": 4,
          "material": 3,
          "indices": 46
        }
      ]
    },
    {
      "name": "GeometryNode_565",
      "primitives": [
        {
          "attributes": {
            "POSITION": 192,
            "NORMAL": 193,
            "TEXCOORD_0": 194
          },
          "mode": 4,
          "material": 4,
          "indices": 47
        }
      ]
    },
    {
      "name": "GeometryNode_583",
      "primitives": [
        {
          "attributes": {
            "POSITION": 195,
            "NORMAL": 196,
            "TEXCOORD_0": 197
          },
          "mode": 4,
          "material": 3,
          "indices": 48
        }
      ]
    },
    {
      "name": "GeometryNode_591",
      "primitives": [
        {
          "attributes": {
            "POSITION": 198,
            "NORMAL": 199,
            "TEXCOORD_0": 200
          },
          "mode": 4,
          "material": 4,
          "indices": 49
        }
      ]
    },
    {
      "name": "GeometryNode_609",
      "primitives": [
        {
          "attributes": {
            "POSITION": 201,
            "NORMAL": 202,
            "TEXCOORD_0": 203
          },
          "mode": 4,
          "material": 3,
          "indices": 50
        }
      ]
    },
    {
      "name": "GeometryNode_617",
      "primitives": [
        {
          "attributes": {
            "POSITION": 204,
            "NORMAL": 205,
            "TEXCOORD_0": 206
          },
          "mode": 4,
          "material": 4,
          "indices": 51
        }
      ]
    },
    {
      "name": "GeometryNode_635",
      "primitives": [
        {
          "attributes": {
            "POSITION": 207,
            "NORMAL": 208,
            "TEXCOORD_0": 209
          },
          "mode": 4,
          "material": 3,
          "indices": 52
        }
      ]
    },
    {
      "name": "GeometryNode_643",
      "primitives": [
        {
          "attributes": {
            "POSITION": 210,
            "NORMAL": 211,
            "TEXCOORD_0": 212
          },
          "mode": 4,
          "material": 4,
          "indices": 53
        }
      ]
    },
    {
      "name": "GeometryNode_661",
      "primitives": [
        {
          "attributes": {
            "POSITION": 213,
            "NORMAL": 214,
            "TEXCOORD_0": 215
          },
          "mode": 4,
          "material": 3,
          "indices": 54
        }
      ]
    },
    {
      "name": "GeometryNode_669",
      "primitives": [
        {
          "attributes": {
            "POSITION": 216,
            "NORMAL": 217,
            "TEXCOORD_0": 218
          },
          "mode": 4,
          "material": 4,
          "indices": 55
        }
      ]
    },
    {
      "name": "GeometryNode_687",
      "primitives": [
        {
          "attributes": {
            "POSITION": 219,
            "NORMAL": 220,
            "TEXCOORD_0": 221
          },
          "mode": 4,
          "material": 3,
          "indices": 56
        }
      ]
    },
    {
      "name": "GeometryNode_695",
      "primitives": [
        {
          "attributes": {
            "POSITION": 222,
            "NORMAL": 223,
            "TEXCOORD_0": 224
          },
          "mode": 4,
          "material": 4,
          "indices": 57
        }
      ]
    },
    {
      "name": "GeometryNode_713",
      "primitives": [
        {
          "attributes": {
            "POSITION": 225,
            "NORMAL": 226,
            "COLOR_0": 227,
            "TEXCOORD_0": 228
          },
          "mode": 4,
          "material": 5,
          "indices": 58
        }
      ]
    },
    {
      "name": "GeometryNode_732",
      "primitives": [
        {
          "attributes": {
            "POSITION": 229,
            "NORMAL": 230,
            "COLOR_0": 231,
            "TEXCOORD_0": 232
          },
          "mode": 4,
          "material": 5,
          "indices": 59
        }
      ]
    },
    {
      "name": "GeometryNode_747",
      "primitives": [
        {
          "attributes": {
            "POSITION": 233,
            "NORMAL": 234,
            "TEXCOORD_0": 235
          },
          "mode": 4,
          "material": 6,
          "indices": 60
        }
      ]
    },
    {
      "name": "GeometryNode_759",
      "primitives": [
        {
          "attributes": {
            "POSITION": 236,
            "NORMAL": 237,
            "TEXCOORD_0": 238
          },
          "mode": 4,
          "material": 6,
          "indices": 61
        }
      ]
    },
    {
      "name": "GeometryNode_767",
      "primitives": [
        {
          "attributes": {
            "POSITION": 239,
            "NORMAL": 240,
            "TEXCOORD_0": 241
          },
          "mode": 4,
          "material": 6,
          "indices": 62
        }
      ]
    }
  ],
  "nodes": [
    {
      "name": "root",
      "children": [
        1
      ]
    },
    {
      "name": "GLTF_SceneRootNode",
      "rotation": [
        0.7071067811865475,
        0,
        0,
        0.7071067811865476
      ],
      "children": [
        2,
        6,
        16,
        21,
        25,
        39,
        53,
        57,
        61,
        65,
        69,
        73,
        77,
        81,
        85,
        88,
        91
      ]
    },
    {
      "name": "1.003_0",
      "translation": [
        1.6559799909591675,
        8.278730392456055,
        -2.3036699295043945
      ],
      "rotation": [
        0.2708835560972231,
        0.2237659773867303,
        0.6256863451971252,
        0.69646780685267
      ],
      "scale": [
        5.169757707832533,
        5.169758552187481,
        5.169765319761504
      ],
      "children": [
        3
      ]
    },
    {
      "name": "1.003",
      "children": [
        4,
        5
      ]
    },
    {
      "name": "GeometryNode_5",
      "mesh": 0
    },
    {
      "name": "GeometryNode_17",
      "mesh": 1
    },
    {
      "name": "Plane.005_1",
      "translation": [
        5.445199966430664,
        -4.855440139770508,
        -0.2908250093460083
      ],
      "rotation": [
        0.5337238746095009,
        0.4841136794218531,
        -0.5079437249958185,
        0.47198089160141354
      ],
      "scale": [
        0.9999998276309651,
        0.44551467407822964,
        1.0000000836520002
      ],
      "children": [
        7
      ]
    },
    {
      "name": "Plane.005",
      "children": [
        8,
        9,
        10,
        11,
        12,
        13,
        14,
        15
      ]
    },
    {
      "name": "GeometryNode_35",
      "mesh": 2
    },
    {
      "name": "GeometryNode_47",
      "mesh": 3
    },
    {
      "name": "GeometryNode_55",
      "mesh": 4
    },
    {
      "name": "GeometryNode_63",
      "mesh": 5
    },
    {
      "name": "GeometryNode_71",
      "mesh": 6
    },
    {
      "name": "GeometryNode_79",
      "mesh": 7
    },
    {
      "name": "GeometryNode_87",
      "mesh": 8
    },
    {
      "name": "GeometryNode_95",
      "mesh": 9
    },
    {
      "name": "Plane.002_2",
      "translation": [
        1.2934000492095947,
        -0.4468109905719757,
        0
      ],
      "rotation": [
        0.7071067811865475,
        0,
        0,
        0.7071067811865476
      ],
      "scale": [
        5.055679798126221,
        5.055679798126221,
        5.055679798126221
      ],
      "children": [
        17
      ]
    },
    {
      "name": "Plane.002",
      "children": [
        18,
        19,
        20
      ]
    },
    {
      "name": "GeometryNode_137",
      "mesh": 10
    },
    {
      "name": "GeometryNode_149",
      "mesh": 11
    },
    {
      "name": "GeometryNode_157",
      "mesh": 12
    },
    {
      "name": "Cylinder.034_3",
      "translation": [
        1.7013399600982666,
        4.379059791564941,
        0.13221600651741028
      ],
      "rotation": [
        0.5787746874221266,
        0.3059627665474412,
        0.375308252031554,
        0.6561634439076041
      ],
      "scale": [
        0.14254971998436303,
        0.015296165973606446,
        0.14254974641621618
      ],
      "children": [
        22
      ]
    },
    {
      "name": "Cylinder.034",
      "children": [
        23,
        24
      ]
    },
    {
      "name": "GeometryNode_179",
      "mesh": 13
    },
    {
      "name": "GeometryNode_191",
      "mesh": 14
    },
    {
      "name": "Cylinder.033_4",
      "translation": [
        -3.600719928741455,
        -4.984650135040283,
        -0.26398399472236633
      ],
      "rotation": [
        0.3083922377888909,
        -0.08278563923669781,
        0.6501540649802692,
        0.6894497996456649
      ],
      "scale": [
        0.14255003830187943,
        0.01529616300865068,
        0.1425495344070728
      ],
      "children": [
        26
      ]
    },
    {
      "name": "Cylinder.033",
      "children": [
        27,
        28,
        29,
        30,
        31,
        32,
        33,
        34,
        35,
        36,
        37,
        38
      ]
    },
    {
      "name": "GeometryNode_213",
      "mesh": 15
    },
    {
      "name": "GeometryNode_221",
      "mesh": 16
    },
    {
      "name": "GeometryNode_229",
      "mesh": 17
    },
    {
      "name": "GeometryNode_237",
      "mesh": 18
    },
    {
      "name": "GeometryNode_245",
      "mesh": 19
    },
    {
      "name": "GeometryNode_253",
      "mesh": 20
    },
    {
      "name": "GeometryNode_261",
      "mesh": 21
    },
    {
      "name": "GeometryNode_269",
      "mesh": 22
    },
    {
      "name": "GeometryNode_277",
      "mesh": 23
    },
    {
      "name": "GeometryNode_285",
      "mesh": 24
    },
    {
      "name": "GeometryNode_293",
      "mesh": 25
    },
    {
      "name": "GeometryNode_301",
      "mesh": 26
    },
    {
      "name": "Cylinder.031_5",
      "translation": [
        6.1704301834106445,
        -4.893249988555908,
        -0.27643901109695435
      ],
      "rotation": [
        0.6205216788467158,
        0.6403916738225505,
        -0.38501633408384317,
        0.23793588214924466
      ],
      "scale": [
        0.1425501132081274,
        0.015296237103174395,
        0.1425499421214169
      ],
      "children": [
        40
      ]
    },
    {
      "name": "Cylinder.031",
      "children": [
        41,
        42,
        43,
        44,
        45,
        46,
        47,
        48,
        49,
        50,
        51,
        52
      ]
    },
    {
      "name": "GeometryNode_359",
      "mesh": 27
    },
    {
      "name": "GeometryNode_367",
      "mesh": 28
    },
    {
      "name": "GeometryNode_375",
      "mesh": 29
    },
    {
      "name": "GeometryNode_383",
      "mesh": 30
    },
    {
      "name": "GeometryNode_391",
      "mesh": 31
    },
    {
      "name": "GeometryNode_399",
      "mesh": 32
    },
    {
      "name": "GeometryNode_407",
      "mesh": 33
    },
    {
      "name": "GeometryNode_415",
      "mesh": 34
    },
    {
      "name": "GeometryNode_423",
      "mesh": 35
    },
    {
      "name": "GeometryNode_431",
      "mesh": 36
    },
    {
      "name": "GeometryNode_439",
      "mesh": 37
    },
    {
      "name": "GeometryNode_447",
      "mesh": 38
    },
    {
      "name": "Cylinder.008_6",
      "translation": [
        1.242550015449524,
        -4.137770175933838,
        0.4573720097541809
      ],
      "rotation": [
        0.7370468298813975,
        -0.38889288837517655,
        -0.15239471360611942,
        0.5313181825050373
      ],
      "scale": [
        0.1552490724466018,
        0.01665883257294128,
        0.1552487619549499
      ],
      "children": [
        54
      ]
    },
    {
      "name": "Cylinder.008",
      "children": [
        55,
        56
      ]
    },
    {
      "name": "GeometryNode_505",
      "mesh": 39
    },
    {
      "name": "GeometryNode_513",
      "mesh": 40
    },
    {
      "name": "Cylinder.007_7",
      "translation": [
        1.1295299530029297,
        -2.899669885635376,
        0.5140269994735718
      ],
      "rotation": [
        0.676291209503709,
        -0.42624716011667935,
        -0.12769925968518633,
        0.5870575305653678
      ],
      "scale": [
        0.15524856616476773,
        0.016658860869210684,
        0.15524813164719348
      ],
      "children": [
        58
      ]
    },
    {
      "name": "Cylinder.007",
      "children": [
        59,
        60
      ]
    },
    {
      "name": "GeometryNode_531",
      "mesh": 41
    },
    {
      "name": "GeometryNode_539",
      "mesh": 42
    },
    {
      "name": "Cylinder.006_8",
      "translation": [
        1.2908300161361694,
        -2.3090500831604004,
        0.42653700709342957
      ],
      "rotation": [
        -0.4887784413270639,
        0.6562244832003965,
        0.40531777952865367,
        -0.4076548753011369
      ],
      "scale": [
        0.15524874163129795,
        0.016658876943866262,
        0.15524874642130182
      ],
      "children": [
        62
      ]
    },
    {
      "name": "Cylinder.006",
      "children": [
        63,
        64
      ]
    },
    {
      "name": "GeometryNode_557",
      "mesh": 43
    },
    {
      "name": "GeometryNode_565",
      "mesh": 44
    },
    {
      "name": "Cylinder.005_9",
      "translation": [
        1.3659499883651733,
        -1.335379958152771,
        0.32004401087760925
      ],
      "rotation": [
        0.6533079738542265,
        -0.4335017629946478,
        -0.18952044648911173,
        0.5910555829061639
      ],
      "scale": [
        0.1552485755732053,
        0.016658807849554796,
        0.15524855039095226
      ],
      "children": [
        66
      ]
    },
    {
      "name": "Cylinder.005",
      "children": [
        67,
        68
      ]
    },
    {
      "name": "GeometryNode_583",
      "mesh": 45
    },
    {
      "name": "GeometryNode_591",
      "mesh": 46
    },
    {
      "name": "Cylinder.004_10",
      "translation": [
        1.5026400089263916,
        -0.11039700359106064,
        0.3026989996433258
      ],
      "rotation": [
        0.6533077951937126,
        -0.4335021571153859,
        -0.18952044726967845,
        0.5910556331806263
      ],
      "scale": [
        0.142549622689278,
        0.015296214100587605,
        0.14254978855666875
      ],
      "children": [
        70
      ]
    },
    {
      "name": "Cylinder.004",
      "children": [
        71,
        72
      ]
    },
    {
      "name": "GeometryNode_609",
      "mesh": 47
    },
    {
      "name": "GeometryNode_617",
      "mesh": 48
    },
    {
      "name": "Cylinder.003_11",
      "translation": [
        1.5562800168991089,
        0.8701649904251099,
        0.28842300176620483
      ],
      "rotation": [
        0.589149436652254,
        -0.5221970104089947,
        -0.31038251987715837,
        0.532800614620322
      ],
      "scale": [
        0.14254991930575148,
        0.015296238322818071,
        0.14254972465410087
      ],
      "children": [
        74
      ]
    },
    {
      "name": "Cylinder.003",
      "children": [
        75,
        76
      ]
    },
    {
      "name": "GeometryNode_635",
      "mesh": 49
    },
    {
      "name": "GeometryNode_643",
      "mesh": 50
    },
    {
      "name": "Cylinder.002_12",
      "translation": [
        1.6636199951171875,
        2.0587000846862793,
        0.2246129959821701
      ],
      "rotation": [
        -0.4440822746142113,
        0.6557521806566716,
        0.5202537115642993,
        -0.3195555087723962
      ],
      "scale": [
        0.14254971430840044,
        0.015296231841189658,
        0.14255024810452
      ],
      "children": [
        78
      ]
    },
    {
      "name": "Cylinder.002",
      "children": [
        79,
        80
      ]
    },
    {
      "name": "GeometryNode_661",
      "mesh": 51
    },
    {
      "name": "GeometryNode_669",
      "mesh": 52
    },
    {
      "name": "Cylinder.001_13",
      "translation": [
        1.69937002658844,
        3.2420899868011475,
        0.20100800693035126
      ],
      "rotation": [
        0.011955353355090565,
        0.6819442540457549,
        0.7054838973493555,
        0.19261795443290364
      ],
      "scale": [
        0.14254945977375458,
        0.015296224695706474,
        0.14254973311878832
      ],
      "children": [
        82
      ]
    },
    {
      "name": "Cylinder.001",
      "children": [
        83,
        84
      ]
    },
    {
      "name": "GeometryNode_687",
      "mesh": 53
    },
    {
      "name": "GeometryNode_695",
      "mesh": 54
    },
    {
      "name": "AO.002_14",
      "translation": [
        8.563469886779785,
        3.0878000259399414,
        -0.4929580092430115
      ],
      "rotation": [
        -0.23266998336756617,
        -0.5375472230040562,
        0.8069517894371234,
        -0.07573903959279182
      ],
      "children": [
        86
      ]
    },
    {
      "name": "AO.002",
      "children": [
        87
      ]
    },
    {
      "name": "GeometryNode_713",
      "mesh": 55
    },
    {
      "name": "AO.001_15",
      "translation": [
        -6.171450138092041,
        3.3228700160980225,
        -1.4444500207901
      ],
      "rotation": [
        0.8969374119861071,
        -0.08531020583563337,
        0.09683897027567871,
        0.42290384680982945
      ],
      "children": [
        89
      ]
    },
    {
      "name": "AO.001",
      "children": [
        90
      ]
    },
    {
      "name": "GeometryNode_732",
      "mesh": 56
    },
    {
      "name": "KHO.003_16",
      "translation": [
        0.8972039818763733,
        -10.848400115966797,
        0.10384199768304825
      ],
      "rotation": [
        0.5039659469595487,
        -0.32846638000623973,
        0.2551648892968094,
        0.756980110204317
      ],
      "scale": [
        3.6447780516163486,
        3.6447827325151168,
        3.6447777097639693
      ],
      "children": [
        92
      ]
    },
    {
      "name": "KHO.003",
      "children": [
        93,
        94,
        95
      ]
    },
    {
      "name": "GeometryNode_747",
      "mesh": 57
    },
    {
      "name": "GeometryNode_759",
      "mesh": 58
    },
    {
      "name": "GeometryNode_767",
      "mesh": 59
    },
    {
      "name": "Sketchfab_model",
      "translation": [
        -1.206527829170227,
        3.425182342529297,
        -46.02248001098633
      ],
      "rotation": [
        -0.6674368025828868,
        0.007791249535738766,
        0.008691713131588895,
        0.7445749560057586
      ],
      "children": [
        0
      ]
    }
  ],
  "scenes": [
    {
      "name": "Scene",
      "nodes": [
        96
      ]
    }
  ],
  "extensionsUsed": [
    "KHR_materials_unlit"
  ]
}