{
  "accessors": [
    {
      "bufferView": 2,
      "componentType": 5126,
      "count": 65533,
      "max": [
        27.895042419433594,
        79.5084228515625,
        106.13301086425781
      ],
      "min": [
        -44.7702522277832,
        -102.76588439941406,
        -130.80526733398438
      ],
      "type": "VEC3"
    },
    {
      "bufferView": 2,
      "byteOffset": 786396,
      "componentType": 5126,
      "count": 65533,
      "max": [
        0.9998375773429871,
        0.9999911785125732,
        0.999992847442627
      ],
      "min": [
        -0.9999790191650391,
        -0.9999591708183289,
        -0.9999997615814209
      ],
      "type": "VEC3"
    },
    {
      "bufferView": 1,
      "componentType": 5126,
      "count": 65533,
      "max": [
        0.9950180053710938,
        0.9966840147972107
      ],
      "min": [
        0.0020649998914450407,
        0.0023529999889433384
      ],
      "type": "VEC2"
    },
    {
      "bufferView": 0,
      "componentType": 5125,
      "count": 161487,
      "type": "SCALAR"
    },
    {
      "bufferView": 2,
      "byteOffset": 1572792,
      "componentType": 5126,
      "count": 65532,
      "max": [
        27.698986053466797,
        84.47848510742188,
        106.95057678222656
      ],
      "min": [
        -44.75083541870117,
        -102.61601257324219,
        -129.4716339111328
      ],
      "type": "VEC3"
    },
    {
      "bufferView": 2,
      "byteOffset": 2359176,
      "componentType": 5126,
      "count": 65532,
      "max": [
        0.9999746680259705,
        0.9992251396179199,
        0.9998815655708313
      ],
      "min": [
        -0.999994158744812,
        -0.9983107447624207,
        -0.9998421669006348
      ],
      "type": "VEC3"
    },
    {
      "bufferView": 1,
      "byteOffset": 524264,
      "componentType": 5126,
      "count": 65532,
      "max": [
        0.9948099851608276,
        0.9968069791793823
      ],
      "min": [
        0.00215999991632998,
        0.006688999943435192
      ],
      "type": "VEC2"
    },
    {
      "bufferView": 0,
      "byteOffset": 645948,
      "componentType": 5125,
      "count": 139302,
      "type": "SCALAR"
    },
    {
      "bufferView": 2,
      "byteOffset": 3145560,
      "componentType": 5126,
      "count": 65533,
      "max": [
        27.178932189941406,
        88.81571960449219,
        108.86653900146484
      ],
      "min": [
        -44.84601593017578,
        -96.28755187988281,
        -131.21160888671875
      ],
      "type": "VEC3"
    },
    {
      "bufferView": 2,
      "byteOffset": 3931956,
      "componentType": 5126,
      "count": 65533,
      "max": [
        0.9999945163726807,
        0.9988334774971008,
        0.9999396204948425
      ],
      "min": [
        -0.9999898076057434,
        -0.9997498393058777,
        -0.99996417760849
      ],
      "type": "VEC3"
    },
    {
      "bufferView": 1,
      "byteOffset": 1048520,
      "componentType": 5126,
      "count": 65533,
      "max": [
        0.9972019791603088,
        0.9912999868392944
      ],
      "min": [
        0.0029990000184625387,
        0.002372999908402562
      ],
      "type": "VEC2"
    },
    {
      "bufferView": 0,
      "byteOffset": 1203156,
      "componentType": 5125,
      "count": 156042,
      "type": "SCALAR"
    },
    {
      "bufferView": 2,
      "byteOffset": 4718352,
      "componentType": 5126,
      "count": 65534,
      "max": [
        20.248519897460938,
        91.84967041015625,
        108.85446166992188
      ],
      "min": [
        -44.78882598876953,
        -96.38606262207031,
        -124.41195678710938
      ],
      "type": "VEC3"
    },
    {
      "bufferView": 2,
      "byteOffset": 5504760,
      "componentType": 5126,
      "count": 65534,
      "max": [
        0.999993085861206,
        0.9999656677246094,
        0.9999979734420776
      ],
      "min": [
        -0.9999802708625793,
        -0.9998214840888977,
        -0.9999830722808838
      ],
      "type": "VEC3"
    },
    {
      "bufferView": 1,
      "byteOffset": 1572784,
      "componentType": 5126,
      "count": 65534,
      "max": [
        0.9971539974212646,
        0.9954349994659424
      ],
      "min": [
        0.0019839999731630087,
        0.0023900000378489494
      ],
      "type": "VEC2"
    },
    {
      "bufferView": 0,
      "byteOffset": 1827324,
      "componentType": 5125,
      "count": 129717,
      "type": "SCALAR"
    },
    {
      "bufferView": 2,
      "byteOffset": 6291168,
      "componentType": 5126,
      "count": 65532,
      "max": [
        18.376346588134766,
        91.84852600097656,
        108.62355041503906
      ],
      "min": [
        -43.78237533569336,
        -91.38211059570313,
        -125.14669799804688
      ],
      "type": "VEC3"
    },
    {
      "bufferView": 2,
      "byteOffset": 7077552,
      "componentType": 5126,
      "count": 65532,
      "max": [
        0.9996067881584167,
        0.9999656677246094,
        0.998413622379303
      ],
      "min": [
        -0.9999756813049316,
        -0.9999929666519165,
        -0.9998466968536377
      ],
      "type": "VEC3"
    },
    {
      "bufferView": 1,
      "byteOffset": 2097056,
      "componentType": 5126,
      "count": 65532,
      "max": [
        0.9971539974212646,
        0.9788690209388733
      ],
      "min": [
        0.0020779999904334545,
        0.0023789999540895224
      ],
      "type": "VEC2"
    },
    {
      "bufferView": 0,
      "byteOffset": 2346192,
      "componentType": 5125,
      "count": 115185,
      "type": "SCALAR"
    },
    {
      "bufferView": 2,
      "byteOffset": 7863936,
      "componentType": 5126,
      "count": 65534,
      "max": [
        19.096412658691406,
        91.84852600097656,
        108.93366241455078
      ],
      "min": [
        -44.75151062011719,
        -91.83717346191406,
        -129.0852813720703
      ],
      "type": "VEC3"
    },
    {
      "bufferView": 2,
      "byteOffset": 8650344,
      "componentType": 5126,
      "count": 65534,
      "max": [
        0.9999874234199524,
        0.9999656677246094,
        0.9999762773513794
      ],
      "min": [
        -0.9999802708625793,
        -0.9997990131378174,
        -0.9999549984931946
      ],
      "type": "VEC3"
    },
    {
      "bufferView": 1,
      "byteOffset": 2621312,
      "componentType": 5126,
      "count": 65534,
      "max": [
        0.996658980846405,
        0.9958549737930298
      ],
      "min": [
        0.0018599999602884054,
        0.011238000355660915
      ],
      "type": "VEC2"
    },
    {
      "bufferView": 0,
      "byteOffset": 2806932,
      "componentType": 5125,
      "count": 110742,
      "type": "SCALAR"
    },
    {
      "bufferView": 2,
      "byteOffset": 9436752,
      "componentType": 5126,
      "count": 65532,
      "max": [
        27.890392303466797,
        91.05596923828125,
        105.4686050415039
      ],
      "min": [
        -42.811668395996094,
        -101.88739013671875,
        -131.4807586669922
      ],
      "type": "VEC3"
    },
    {
      "bufferView": 2,
      "byteOffset": 10223136,
      "componentType": 5126,
      "count": 65532,
      "max": [
        0.9999911189079285,
        0.9992140531539917,
        0.9998543858528137
      ],
      "min": [
        -0.9999405145645142,
        -0.9994378089904785,
        -0.9998421669006348
      ],
      "type": "VEC3"
    },
    {
      "bufferView": 1,
      "byteOffset": 3145584,
      "componentType": 5126,
      "count": 65532,
      "max": [
        0.9973310232162476,
        0.9894530177116394
      ],
      "min": [
        0.002478000009432435,
        0.002326000016182661
      ],
      "type": "VEC2"
    },
    {
      "bufferView": 0,
      "byteOffset": 3249900,
      "componentType": 5125,
      "count": 131586,
      "type": "SCALAR"
    },
    {
      "bufferView": 2,
      "byteOffset": 11009520,
      "componentType": 5126,
      "count": 65533,
      "max": [
        27.702472686767578,
        91.84852600097656,
        108.94692993164063
      ],
      "min": [
        -44.386295318603516,
        -102.77433776855469,
        -97.53985595703125
      ],
      "type": "VEC3"
    },
    {
      "bufferView": 2,
      "byteOffset": 11795916,
      "componentType": 5126,
      "count": 65533,
      "max": [
        0.9999908208847046,
        0.9999656677246094,
        0.9999979734420776
      ],
      "min": [
        -0.9999802708625793,
        -0.9998525977134705,
        -0.9999830722808838
      ],
      "type": "VEC3"
    },
    {
      "bufferView": 1,
      "byteOffset": 3669840,
      "componentType": 5126,
      "count": 65533,
      "max": [
        0.9963849782943726,
        0.9977999925613403
      ],
      "min": [
        0.0022460001055151224,
        0.01605300046503544
      ],
      "type": "VEC2"
    },
    {
      "bufferView": 0,
      "byteOffset": 3776244,
      "componentType": 5125,
      "count": 107178,
      "type": "SCALAR"
    },
    {
      "bufferView": 2,
      "byteOffset": 12582312,
      "componentType": 5126,
      "count": 65534,
      "max": [
        27.895042419433594,
        90.28694152832031,
        104.01171875
      ],
      "min": [
        -44.68473434448242,
        -102.79409790039063,
        -131.4807586669922
      ],
      "type": "VEC3"
    },
    {
      "bufferView": 2,
      "byteOffset": 13368720,
      "componentType": 5126,
      "count": 65534,
      "max": [
        0.9999915957450867,
        0.9998818039894104,
        0.9999579787254333
      ],
      "min": [
        -0.999994158744812,
        -0.9999972581863403,
        -0.9997779726982117
      ],
      "type": "VEC3"
    },
    {
      "bufferView": 1,
      "byteOffset": 4194104,
      "componentType": 5126,
      "count": 65534,
      "max": [
        0.9969329833984375,
        0.9974279999732971
      ],
      "min": [
        0.0028959999326616526,
        0.0023870000150054693
      ],
      "type": "VEC2"
    },
    {
      "bufferView": 0,
      "byteOffset": 4204956,
      "componentType": 5125,
      "count": 114948,
      "type": "SCALAR"
    },
    {
      "bufferView": 2,
      "byteOffset": 14155128,
      "componentType": 5126,
      "count": 65532,
      "max": [
        26.235328674316406,
        90.83685302734375,
        104.10951232910156
      ],
      "min": [
        -42.946624755859375,
        -102.35173034667969,
        -131.3990478515625
      ],
      "type": "VEC3"
    },
    {
      "bufferView": 2,
      "byteOffset": 14941512,
      "componentType": 5126,
      "count": 65532,
      "max": [
        0.9999746680259705,
        0.99869304895401,
        0.9879534840583801
      ],
      "min": [
        -0.9999455213546753,
        -0.9985678791999817,
        -0.9977676272392273
      ],
      "type": "VEC3"
    },
    {
      "bufferView": 1,
      "byteOffset": 4718376,
      "componentType": 5126,
      "count": 65532,
      "max": [
        0.9967439770698547,
        0.993353009223938
      ],
      "min": [
        0.002068999921903014,
        0.002440999960526824
      ],
      "type": "VEC2"
    },
    {
      "bufferView": 0,
      "byteOffset": 4664748,
      "componentType": 5125,
      "count": 94836,
      "type": "SCALAR"
    },
    {
      "bufferView": 2,
      "byteOffset": 15727896,
      "componentType": 5126,
      "count": 65534,
      "max": [
        27.86829376220703,
        90.722412109375,
        108.5616455078125
      ],
      "min": [
        -44.52975845336914,
        -102.79402160644531,
        -130.52696228027344
      ],
      "type": "VEC3"
    },
    {
      "bufferView": 2,
      "byteOffset": 16514304,
      "componentType": 5126,
      "count": 65534,
      "max": [
        0.9999992251396179,
        0.9999911785125732,
        0.9998239874839783
      ],
      "min": [
        -0.9999737739562988,
        -0.9999972581863403,
        -0.9996897578239441
      ],
      "type": "VEC3"
    },
    {
      "bufferView": 1,
      "byteOffset": 5242632,
      "componentType": 5126,
      "count": 65534,
      "max": [
        0.9969540238380432,
        0.9973919987678528
      ],
      "min": [
        0.0035329998936504126,
        0.0023169999476522207
      ],
      "type": "VEC2"
    },
    {
      "bufferView": 0,
      "byteOffset": 5044092,
      "componentType": 5125,
      "count": 103320,
      "type": "SCALAR"
    },
    {
      "bufferView": 2,
      "byteOffset": 17300712,
      "componentType": 5126,
      "count": 65534,
      "max": [
        27.885398864746094,
        89.30824279785156,
        108.27513122558594
      ],
      "min": [
        -44.82051086425781,
        -102.71044921875,
        -131.25103759765625
      ],
      "type": "VEC3"
    },
    {
      "bufferView": 2,
      "byteOffset": 18087120,
      "componentType": 5126,
      "count": 65534,
      "max": [
        0.9999915957450867,
        0.9998757243156433,
        0.999992847442627
      ],
      "min": [
        -0.9998350143432617,
        -0.9999972581863403,
        -0.9998410940170288
      ],
      "type": "VEC3"
    },
    {
      "bufferView": 1,
      "byteOffset": 5766904,
      "componentType": 5126,
      "count": 65534,
      "max": [
        0.9971950054168701,
        0.9962829947471619
      ],
      "min": [
        0.002167999977245927,
        0.0023870000150054693
      ],
      "type": "VEC2"
    },
    {
      "bufferView": 0,
      "byteOffset": 5457372,
      "componentType": 5125,
      "count": 106287,
      "type": "SCALAR"
    },
    {
      "bufferView": 2,
      "byteOffset": 18873528,
      "componentType": 5126,
      "count": 65533,
      "max": [
        27.858013153076172,
        91.80628967285156,
        108.94692993164063
      ],
      "min": [
        -44.83109664916992,
        -102.28753662109375,
        -131.20635986328125
      ],
      "type": "VEC3"
    },
    {
      "bufferView": 2,
      "byteOffset": 19659924,
      "componentType": 5126,
      "count": 65533,
      "max": [
        0.9999874234199524,
        0.9992517828941345,
        0.9999979734420776
      ],
      "min": [
        -0.9999898076057434,
        -0.9998911619186401,
        -0.9999662637710571
      ],
      "type": "VEC3"
    },
    {
      "bufferView": 1,
      "byteOffset": 6291176,
      "componentType": 5126,
      "count": 65533,
      "max": [
        0.9969840049743652,
        0.9917060136795044
      ],
      "min": [
        0.0021639999467879534,
        0.00612299982458353
      ],
      "type": "VEC2"
    },
    {
      "bufferView": 0,
      "byteOffset": 5882520,
      "componentType": 5125,
      "count": 105774,
      "type": "SCALAR"
    },
    {
      "bufferView": 2,
      "byteOffset": 20446320,
      "componentType": 5126,
      "count": 65534,
      "max": [
        27.723316192626953,
        91.8414306640625,
        108.88666534423828
      ],
      "min": [
        -44.83109664916992,
        -102.71322631835938,
        -127.3134536743164
      ],
      "type": "VEC3"
    },
    {
      "bufferView": 2,
      "byteOffset": 21232728,
      "componentType": 5126,
      "count": 65534,
      "max": [
        0.999994158744812,
        0.9998753666877747,
        0.9997565746307373
      ],
      "min": [
        -0.9999790787696838,
        -0.9998911619186401,
        -0.9999830722808838
      ],
      "type": "VEC3"
    },
    {
      "bufferView": 1,
      "byteOffset": 6815440,
      "componentType": 5126,
      "count": 65534,
      "max": [
        0.9967979788780212,
        0.9964240193367004
      ],
      "min": [
        0.0024689999409019947,
        0.002739999908953905
      ],
      "type": "VEC2"
    },
    {
      "bufferView": 0,
      "byteOffset": 6305616,
      "componentType": 5125,
      "count": 95790,
      "type": "SCALAR"
    },
    {
      "bufferView": 2,
      "byteOffset": 22019136,
      "componentType": 5126,
      "count": 65534,
      "max": [
        27.092529296875,
        91.84748840332031,
        108.94012451171875
      ],
      "min": [
        -44.6472053527832,
        -97.39411926269531,
        -131.2811737060547
      ],
      "type": "VEC3"
    },
    {
      "bufferView": 2,
      "byteOffset": 22805544,
      "componentType": 5126,
      "count": 65534,
      "max": [
        0.9999712109565735,
        0.9994886517524719,
        0.9999699592590332
      ],
      "min": [
        -0.9999802708625793,
        -0.9995512962341309,
        -0.9999997615814209
      ],
      "type": "VEC3"
    },
    {
      "bufferView": 1,
      "byteOffset": 7339712,
      "componentType": 5126,
      "count": 65534,
      "max": [
        0.9967470169067383,
        0.9980909824371338
      ],
      "min": [
        0.001626000041142106,
        0.004902999848127365
      ],
      "type": "VEC2"
    },
    {
      "bufferView": 0,
      "byteOffset": 6688776,
      "componentType": 5125,
      "count": 93432,
      "type": "SCALAR"
    },
    {
      "bufferView": 2,
      "byteOffset": 23591952,
      "componentType": 5126,
      "count": 65532,
      "max": [
        27.858013153076172,
        83.23323059082031,
        92.70811462402344
      ],
      "min": [
        -43.21974563598633,
        -102.77250671386719,
        -127.51852416992188
      ],
      "type": "VEC3"
    },
    {
      "bufferView": 2,
      "byteOffset": 24378336,
      "componentType": 5126,
      "count": 65532,
      "max": [
        0.9999992251396179,
        0.9999911785125732,
        0.9999068975448608
      ],
      "min": [
        -0.999994158744812,
        -0.9996147751808167,
        -0.9998689889907837
      ],
      "type": "VEC3"
    },
    {
      "bufferView": 1,
      "byteOffset": 7863984,
      "componentType": 5126,
      "count": 65532,
      "max": [
        0.9959239959716797,
        0.9969469904899597
      ],
      "min": [
        0.002148000057786703,
        0.0023590000346302986
      ],
      "type": "VEC2"
    },
    {
      "bufferView": 0,
      "byteOffset": 7062504,
      "componentType": 5125,
      "count": 88977,
      "type": "SCALAR"
    },
    {
      "bufferView": 2,
      "byteOffset": 25164720,
      "componentType": 5126,
      "count": 65532,
      "max": [
        27.851322174072266,
        88.1458740234375,
        108.3872299194336
      ],
      "min": [
        -43.74016571044922,
        -102.33929443359375,
        -131.47105407714844
      ],
      "type": "VEC3"
    },
    {
      "bufferView": 2,
      "byteOffset": 25951104,
      "componentType": 5126,
      "count": 65532,
      "max": [
        0.999912440776825,
        0.997589647769928,
        0.999992847442627
      ],
      "min": [
        -0.9999608397483826,
        -0.9985678791999817,
        -0.9998689889907837
      ],
      "type": "VEC3"
    },
    {
      "bufferView": 1,
      "byteOffset": 8388240,
      "componentType": 5126,
      "count": 65532,
      "max": [
        0.9958189725875854,
        0.9980720281600952
      ],
      "min": [
        0.0020630001090466976,
        0.004027999937534332
      ],
      "type": "VEC2"
    },
    {
      "bufferView": 0,
      "byteOffset": 7418412,
      "componentType": 5125,
      "count": 94005,
      "type": "SCALAR"
    },
    {
      "bufferView": 2,
      "byteOffset": 26737488,
      "componentType": 5126,
      "count": 65533,
      "max": [
        23.322452545166016,
        91.84967041015625,
        108.80770111083984
      ],
      "min": [
        -44.62685012817383,
        -80.65693664550781,
        -77.8588638305664
      ],
      "type": "VEC3"
    },
    {
      "bufferView": 2,
      "byteOffset": 27523884,
      "componentType": 5126,
      "count": 65533,
      "max": [
        0.9999945163726807,
        0.9996588826179504,
        0.9988956451416016
      ],
      "min": [
        -0.9999898076057434,
        -0.9998525977134705,
        -0.9999447464942932
      ],
      "type": "VEC3"
    },
    {
      "bufferView": 1,
      "byteOffset": 8912496,
      "componentType": 5126,
      "count": 65533,
      "max": [
        0.9964039921760559,
        0.9888439774513245
      ],
      "min": [
        0.0018350000027567148,
        0.023114999756217003
      ],
      "type": "VEC2"
    },
    {
      "bufferView": 0,
      "byteOffset": 7794432,
      "componentType": 5125,
      "count": 82470,
      "type": "SCALAR"
    },
    {
      "bufferView": 2,
      "byteOffset": 28310280,
      "componentType": 5126,
      "count": 65534,
      "max": [
        27.79916000366211,
        90.48265075683594,
        108.87767028808594
      ],
      "min": [
        -44.76095199584961,
        -102.72372436523438,
        -130.6603546142578
      ],
      "type": "VEC3"
    },
    {
      "bufferView": 2,
      "byteOffset": 29096688,
      "componentType": 5126,
      "count": 65534,
      "max": [
        0.9999908208847046,
        0.9989300966262817,
        0.9999920129776001
      ],
      "min": [
        -0.9999309182167053,
        -0.9993423223495483,
        -0.9999662637710571
      ],
      "type": "VEC3"
    },
    {
      "bufferView": 1,
      "byteOffset": 9436760,
      "componentType": 5126,
      "count": 65534,
      "max": [
        0.9970290064811707,
        0.9966239929199219
      ],
      "min": [
        0.0020749999675899744,
        0.0023169999476522207
      ],
      "type": "VEC2"
    },
    {
      "bufferView": 0,
      "byteOffset": 8124312,
      "componentType": 5125,
      "count": 86838,
      "type": "SCALAR"
    },
    {
      "bufferView": 2,
      "byteOffset": 29883096,
      "componentType": 5126,
      "count": 33578,
      "max": [
        27.050678253173828,
        89.15679931640625,
        101.50291442871094
      ],
      "min": [
        -40.86099624633789,
        -102.79402160644531,
        -127.67347717285156
      ],
      "type": "VEC3"
    },
    {
      "bufferView": 2,
      "byteOffset": 30286032,
      "componentType": 5126,
      "count": 33578,
      "max": [
        0.9999992251396179,
        0.9999905824661255,
        0.9961193799972534
      ],
      "min": [
        -0.9999455213546753,
        -0.9999660849571228,
        -0.9938210248947144
      ],
      "type": "VEC3"
    },
    {
      "bufferView": 1,
      "byteOffset": 9961032,
      "componentType": 5126,
      "count": 33578,
      "max": [
        0.9958500266075134,
        0.9969729781150818
      ],
      "min": [
        0.0028379999566823244,
        0.016408000141382217
      ],
      "type": "VEC2"
    },
    {
      "bufferView": 0,
      "byteOffset": 8471664,
      "componentType": 5125,
      "count": 42369,
      "type": "SCALAR"
    }
  ],
  "asset": {
    "extras": {
      "author": "thienbui2505 (https://sketchfab.com/thienbui2505)",
      "license": "CC-BY-4.0 (http://creativecommons.org/licenses/by/4.0/)",
      "source": "https://sketchfab.com/3d-models/chieng-muong-so-1-3046d9da53014f45a65dcc101879148a",
      "title": "Chiêng Mường số 1"
    },
    "generator": "Sketchfab-17.26.0",
    "version": "2.0"
  },
  "bufferViews": [
    {
      "buffer": 0,
      "byteLength": 8641140,
      "name": "floatBufferViews",
      "target": 34963
    },
    {
      "buffer": 0,
      "byteLength": 10229656,
      "byteOffset": 8641140,
      "byteStride": 8,
      "name": "floatBufferViews",
      "target": 34962
    },
    {
      "buffer": 0,
      "byteLength": 30688968,
      "byteOffset": 18870796,
      "byteStride": 12,
      "name": "floatBufferViews",
      "target": 34962
    }
  ],
  "buffers": [
    {
      "byteLength": 49559764,
      "uri": "scene.bin"
    }
  ],
  "extensionsUsed": [
    "KHR_materials_unlit"
  ],
  "images": [
    {
      "uri": "textures/texture_baseColor.jpeg"
    }
  ],
  "materials": [
    {
      "doubleSided": true,
      "extensions": {
        "KHR_materials_unlit": {}
      },
      "name": "texture",
      "pbrMetallicRoughness": {
        "baseColorTexture": {
          "index": 0
        },
        "metallicFactor": 0.0
      }
    }
  ],
  "meshes": [
    {
      "name": "Object_0",
      "primitives": [
        {
          "attributes": {
            "NORMAL": 1,
            "POSITION": 0,
            "TEXCOORD_0": 2
          },
          "indices": 3,
          "material": 0,
          "mode": 4
        }
      ]
    },
    {
      "name": "Object_1",
      "primitives": [
        {
          "attributes": {
            "NORMAL": 5,
            "POSITION": 4,
            "TEXCOORD_0": 6
          },
          "indices": 7,
          "material": 0,
          "mode": 4
        }
      ]
    },
    {
      "name": "Object_2",
      "primitives": [
        {
          "attributes": {
            "NORMAL": 9,
            "POSITION": 8,
            "TEXCOORD_0": 10
          },
          "indices": 11,
          "material": 0,
          "mode": 4
        }
      ]
    },
    {
      "name": "Object_3",
      "primitives": [
        {
          "attributes": {
            "NORMAL": 13,
            "POSITION": 12,
            "TEXCOORD_0": 14
          },
          "indices": 15,
          "material": 0,
          "mode": 4
        }
      ]
    },
    {
      "name": "Object_4",
      "primitives": [
        {
          "attributes": {
            "NORMAL": 17,
            "POSITION": 16,
            "TEXCOORD_0": 18
          },
          "indices": 19,
          "material": 0,
          "mode": 4
        }
      ]
    },
    {
      "name": "Object_5",
      "primitives": [
        {
          "attributes": {
            "NORMAL": 21,
            "POSITION": 20,
            "TEXCOORD_0": 22
          },
          "indices": 23,
          "material": 0,
          "mode": 4
        }
      ]
    },
    {
      "name": "Object_6",
      "primitives": [
        {
          "attributes": {
            "NORMAL": 25,
            "POSITION": 24,
            "TEXCOORD_0": 26
          },
          "indices": 27,
          "material": 0,
          "mode": 4
        }
      ]
    },
    {
      "name": "Object_7",
      "primitives": [
        {
          "attributes": {
            "NORMAL": 29,
            "POSITION": 28,
            "TEXCOORD_0": 30
          },
          "indices": 31,
          "material": 0,
          "mode": 4
        }
      ]
    },
    {
      "name": "Object_8",
      "primitives": [
        {
          "attributes": {
            "NORMAL": 33,
            "POSITION": 32,
            "TEXCOORD_0": 34
          },
          "indices": 35,
          "material": 0,
          "mode": 4
        }
      ]
    },
    {
      "name": "Object_9",
      "primitives": [
        {
          "attributes": {
            "NORMAL": 37,
            "POSITION": 36,
            "TEXCOORD_0": 38
          },
          "indices": 39,
          "material": 0,
          "mode": 4
        }
      ]
    },
    {
      "name": "Object_10",
      "primitives": [
        {
          "attributes": {
            "NORMAL": 41,
            "POSITION": 40,
            "TEXCOORD_0": 42
          },
          "indices": 43,
          "material": 0,
          "mode": 4
        }
      ]
    },
    {
      "name": "Object_11",
      "primitives": [
        {
          "attributes": {
            "NORMAL": 45,
            "POSITION": 44,
            "TEXCOORD_0": 46
          },
          "indices": 47,
          "material": 0,
          "mode": 4
        }
      ]
    },
    {
      "name": "Object_12",
      "primitives": [
        {
          "attributes": {
            "NORMAL": 49,
            "POSITION": 48,
            "TEXCOORD_0": 50
          },
          "indices": 51,
          "material": 0,
          "mode": 4
        }
      ]
    },
    {
      "name": "Object_13",
      "primitives": [
        {
          "attributes": {
            "NORMAL": 53,
            "POSITION": 52,
            "TEXCOORD_0": 54
          },
          "indices": 55,
          "material": 0,
          "mode": 4
        }
      ]
    },
    {
      "name": "Object_14",
      "primitives": [
        {
          "attributes": {
            "NORMAL": 57,
            "POSITION": 56,
            "TEXCOORD_0": 58
          },
          "indices": 59,
          "material": 0,
          "mode": 4
        }
      ]
    },
    {
      "name": "Object_15",
      "primitives": [
        {
          "attributes": {
            "NORMAL": 61,
            "POSITION": 60,
            "TEXCOORD_0": 62
          },
          "indices": 63,
          "material": 0,
          "mode": 4
        }
      ]
    },
    {
      "name": "Object_16",
      "primitives": [
        {
          "attributes": {
            "NORMAL": 65,
            "POSITION": 64,
            "TEXCOORD_0": 66
          },
          "indices": 67,
          "material": 0,
          "mode": 4
        }
      ]
    },
    {
      "name": "Object_17",
      "primitives": [
        {
          "attributes": {
            "NORMAL": 69,
            "POSITION": 68,
            "TEXCOORD_0": 70
          },
          "indices": 71,
          "material": 0,
          "mode": 4
        }
      ]
    },
    {
      "name": "Object_18",
      "primitives": [
        {
          "attributes": {
            "NORMAL": 73,
            "POSITION": 72,
            "TEXCOORD_0": 74
          },
          "indices": 75,
          "material": 0,
          "mode": 4
        }
      ]
    },
    {
      "name": "Object_19",
      "primitives": [
        {
          "attributes": {
            "NORMAL": 77,
            "POSITION": 76,
            "TEXCOORD_0": 78
          },
          "indices": 79,
          "material": 0,
          "mode": 4
        }
      ]
    }
  ],
  "nodes": [
    {
      "children": [
        1
      ],
      "matrix": [
        -0.2976197600364685,
        0.10223691910505316,
        -0.9491944313049316,
        0.0,
        0.9446420073509216,
        0.17536881566047674,
        -0.27730351686477656,
        0.0,
        0.13810844719409943,
        -0.9791799783706665,
        -0.14877051115036033,
        0.0,
        0.0,
        0.0,
        0.0,
        1.0
      ],
      "name": "Sketchfab_model"
    },
    {
      "children": [
        2,
        3,
        4,
        5,
        6,
        7,
        8,
        9,
        10,
        11,
        12,
        13,
        14,
        15,
        16,
        17,
        18,
        19,
        20,
        21
      ],
      "name": "hv12.obj.cleaner.materialmerger.gles"
    },
    {
      "mesh": 0,
      "name": "Object_2"
    },
    {
      "mesh": 1,
      "name": "Object_3"
    },
    {
      "mesh": 2,
      "name": "Object_4"
    },
    {
      "mesh": 3,
      "name": "Object_5"
    },
    {
      "mesh": 4,
      "name": "Object_6"
    },
    {
      "mesh": 5,
      "name": "Object_7"
    },
    {
      "mesh": 6,
      "name": "Object_8"
    },
    {
      "mesh": 7,
      "name": "Object_9"
    },
    {
      "mesh": 8,
      "name": "Object_10"
    },
    {
      "mesh": 9,
      "name": "Object_11"
    },
    {
      "mesh": 10,
      "name": "Object_12"
    },
    {
      "mesh": 11,
      "name": "Object_13"
    },
    {
      "mesh": 12,
      "name": "Object_14"
    },
    {
      "mesh": 13,
      "name": "Object_15"
    },
    {
      "mesh": 14,
      "name": "Object_16"
    },
    {
      "mesh": 15,
      "name": "Object_17"
    },
    {
      "mesh": 16,
      "name": "Object_18"
    },
    {
      "mesh": 17,
      "name": "Object_19"
    },
    {
      "mesh": 18,
      "name": "Object_20"
    },
    {
      "mesh": 19,
      "name": "Object_21"
    }
  ],
  "samplers": [
    {
      "magFilter": 9729,
      "minFilter": 9987,
      "wrapS": 10497,
      "wrapT": 10497
    }
  ],
  "scene": 0,
  "scenes": [
    {
      "name": "Sketchfab_Scene",
      "nodes": [
        0
      ]
    }
  ],
  "textures": [
    {
      "sampler": 0,
      "source": 0
    }
  ]
}
