{
  "accessors": [
    {
      "bufferView": 2,
      "componentType": 5126,
      "count": 65532,
      "max": [
        119.44803619384766,
        -244.7032012939453,
        55.64616394042969
      ],
      "min": [
        12.362983703613281,
        -332.6728210449219,
        -138.5728302001953
      ],
      "type": "VEC3"
    },
    {
      "bufferView": 2,
      "byteOffset": 786384,
      "componentType": 5126,
      "count": 65532,
      "max": [
        0.9999895095825195,
        0.9999550580978394,
        0.9999493956565857
      ],
      "min": [
        -0.9999252557754517,
        -0.9999908804893494,
        -0.9999938607215881
      ],
      "type": "VEC3"
    },
    {
      "bufferView": 1,
      "componentType": 5126,
      "count": 65532,
      "max": [
        0.9831550121307373,
        0.9965190291404724
      ],
      "min": [
        0.0031649998854845762,
        0.005115000065416098
      ],
      "type": "VEC2"
    },
    {
      "bufferView": 0,
      "componentType": 5125,
      "count": 318228,
      "type": "SCALAR"
    },
    {
      "bufferView": 2,
      "byteOffset": 1572768,
      "componentType": 5126,
      "count": 65532,
      "max": [
        152.34933471679688,
        -256.9800109863281,
        57.31217956542969
      ],
      "min": [
        14.416549682617188,
        -325.5288391113281,
        -265.22271728515625
      ],
      "type": "VEC3"
    },
    {
      "bufferView": 2,
      "byteOffset": 2359152,
      "componentType": 5126,
      "count": 65532,
      "max": [
        0.9999927282333374,
        0.9999862313270569,
        0.9999567270278931
      ],
      "min": [
        -0.9998599290847778,
        -0.9999889731407166,
        -0.9999563694000244
      ],
      "type": "VEC3"
    },
    {
      "bufferView": 1,
      "byteOffset": 524256,
      "componentType": 5126,
      "count": 65532,
      "max": [
        0.9925869703292847,
        0.9968249797821045
      ],
      "min": [
        0.0036230001132935286,
        0.005044000223278999
      ],
      "type": "VEC2"
    },
    {
      "bufferView": 0,
      "byteOffset": 1272912,
      "componentType": 5125,
      "count": 315363,
      "type": "SCALAR"
    },
    {
      "bufferView": 2,
      "byteOffset": 3145536,
      "componentType": 5126,
      "count": 65533,
      "max": [
        154.32220458984375,
        -244.82644653320313,
        56.57481384277344
      ],
      "min": [
        19.352745056152344,
        -332.65673828125,
        -256.869140625
      ],
      "type": "VEC3"
    },
    {
      "bufferView": 2,
      "byteOffset": 3931932,
      "componentType": 5126,
      "count": 65533,
      "max": [
        0.999889612197876,
        0.999987006187439,
        0.9999261498451233
      ],
      "min": [
        -0.9999915361404419,
        -0.9999657273292542,
        -0.9999771118164063
      ],
      "type": "VEC3"
    },
    {
      "bufferView": 1,
      "byteOffset": 1048512,
      "componentType": 5126,
      "count": 65533,
      "max": [
        0.994717001914978,
        0.9964690208435059
      ],
      "min": [
        0.003254000097513199,
        0.00533400010317564
      ],
      "type": "VEC2"
    },
    {
      "bufferView": 0,
      "byteOffset": 2534364,
      "componentType": 5125,
      "count": 302247,
      "type": "SCALAR"
    },
    {
      "bufferView": 2,
      "byteOffset": 4718328,
      "componentType": 5126,
      "count": 65532,
      "max": [
        153.97891235351563,
        -244.62539672851563,
        57.46305847167969
      ],
      "min": [
        12.362648010253906,
        -332.16986083984375,
        -265.2223815917969
      ],
      "type": "VEC3"
    },
    {
      "bufferView": 2,
      "byteOffset": 5504712,
      "componentType": 5126,
      "count": 65532,
      "max": [
        0.9999895095825195,
        0.9999945163726807,
        0.9998548030853271
      ],
      "min": [
        -0.9999546408653259,
        -0.9999852180480957,
        -0.9999489784240723
      ],
      "type": "VEC3"
    },
    {
      "bufferView": 1,
      "byteOffset": 1572776,
      "componentType": 5126,
      "count": 65532,
      "max": [
        0.9946249723434448,
        0.9966530203819275
      ],
      "min": [
        0.0036319999489933252,
        0.005785000044852495
      ],
      "type": "VEC2"
    },
    {
      "bufferView": 0,
      "byteOffset": 3743352,
      "componentType": 5125,
      "count": 291012,
      "type": "SCALAR"
    },
    {
      "bufferView": 2,
      "byteOffset": 6291096,
      "componentType": 5126,
      "count": 40730,
      "max": [
        154.2974853515625,
        -244.7954864501953,
        57.45152282714844
      ],
      "min": [
        12.393547058105469,
        -332.5409851074219,
        -264.9679260253906
      ],
      "type": "VEC3"
    },
    {
      "bufferView": 2,
      "byteOffset": 6779856,
      "componentType": 5126,
      "count": 40730,
      "max": [
        0.999889612197876,
        0.9999342560768127,
        0.9999493956565857
      ],
      "min": [
        -0.9999261498451233,
        -0.99998539686203,
        -0.9998810291290283
      ],
      "type": "VEC3"
    },
    {
      "bufferView": 1,
      "byteOffset": 2097032,
      "componentType": 5126,
      "count": 40730,
      "max": [
        0.9945889711380005,
        0.9964820146560669
      ],
      "min": [
        0.00279300007969141,
        0.0051449998281896114
      ],
      "type": "VEC2"
    },
    {
      "bufferView": 0,
      "byteOffset": 4907400,
      "componentType": 5125,
      "count": 125190,
      "type": "SCALAR"
    }
  ],
  "asset": {
    "extras": {
      "author": "THIỆN 360 (https://sketchfab.com/thienbui2505)",
      "license": "CC-BY-4.0 (http://creativecommons.org/licenses/by/4.0/)",
      "source": "https://sketchfab.com/3d-models/dui-chieng-co-lon-45f59b29a7f14780b97e4460709f6bd9",
      "title": "Dùi Chiêng Cỡ Lớn"
    },
    "generator": "Sketchfab-17.26.0",
    "version": "2.0"
  },
  "bufferViews": [
    {
      "buffer": 0,
      "byteLength": 5408160,
      "name": "floatBufferViews",
      "target": 34963
    },
    {
      "buffer": 0,
      "byteLength": 2422872,
      "byteOffset": 5408160,
      "byteStride": 8,
      "name": "floatBufferViews",
      "target": 34962
    },
    {
      "buffer": 0,
      "byteLength": 7268616,
      "byteOffset": 7831032,
      "byteStride": 12,
      "name": "floatBufferViews",
      "target": 34962
    }
  ],
  "buffers": [
    {
      "byteLength": 15099648,
      "uri": "scene.bin"
    }
  ],
  "extensionsUsed": [
    "KHR_materials_unlit"
  ],
  "images": [
    {
      "uri": "textures/texture_baseColor.jpeg"
    }
  ],
  "materials": [
    {
      "doubleSided": true,
      "extensions": {
        "KHR_materials_unlit": {}
      },
      "name": "texture",
      "pbrMetallicRoughness": {
        "baseColorTexture": {
          "index": 0
        },
        "metallicFactor": 0.0
      }
    }
  ],
  "meshes": [
    {
      "name": "Object_0",
      "primitives": [
        {
          "attributes": {
            "NORMAL": 1,
            "POSITION": 0,
            "TEXCOORD_0": 2
          },
          "indices": 3,
          "material": 0,
          "mode": 4
        }
      ]
    },
    {
      "name": "Object_1",
      "primitives": [
        {
          "attributes": {
            "NORMAL": 5,
            "POSITION": 4,
            "TEXCOORD_0": 6
          },
          "indices": 7,
          "material": 0,
          "mode": 4
        }
      ]
    },
    {
      "name": "Object_2",
      "primitives": [
        {
          "attributes": {
            "NORMAL": 9,
            "POSITION": 8,
            "TEXCOORD_0": 10
          },
          "indices": 11,
          "material": 0,
          "mode": 4
        }
      ]
    },
    {
      "name": "Object_3",
      "primitives": [
        {
          "attributes": {
            "NORMAL": 13,
            "POSITION": 12,
            "TEXCOORD_0": 14
          },
          "indices": 15,
          "material": 0,
          "mode": 4
        }
      ]
    },
    {
      "name": "Object_4",
      "primitives": [
        {
          "attributes": {
            "NORMAL": 17,
            "POSITION": 16,
            "TEXCOORD_0": 18
          },
          "indices": 19,
          "material": 0,
          "mode": 4
        }
      ]
    }
  ],
  "nodes": [
    {
      "children": [
        1
      ],
      "matrix": [
        -0.9565340280532837,
        -0.2913307845592499,
        -0.01299928873777396,
        0.0,
        8.315442391904071e-05,
        -0.044848501682281716,
        0.9989938139915466,
        0.0,
        -0.2916206419467926,
        0.9555705189704895,
        0.04292334616184256,
        0.0,
        0.0,
        0.0,
        0.0,
        1.0
      ],
      "name": "Sketchfab_model"
    },
    {
      "children": [
        2,
        3,
        4,
        5,
        6
      ],
      "name": "hv5.obj.cleaner.materialmerger.gles"
    },
    {
      "mesh": 0,
      "name": "Object_2"
    },
    {
      "mesh": 1,
      "name": "Object_3"
    },
    {
      "mesh": 2,
      "name": "Object_4"
    },
    {
      "mesh": 3,
      "name": "Object_5"
    },
    {
      "mesh": 4,
      "name": "Object_6"
    }
  ],
  "samplers": [
    {
      "magFilter": 9729,
      "minFilter": 9987,
      "wrapS": 10497,
      "wrapT": 10497
    }
  ],
  "scene": 0,
  "scenes": [
    {
      "name": "Sketchfab_Scene",
      "nodes": [
        0
      ]
    }
  ],
  "textures": [
    {
      "sampler": 0,
      "source": 0
    }
  ]
}
